<?xml version="1.0" encoding="UTF-8"?>
<svg version="1.1" xmlns="http://www.w3.org/2000/svg" width="900" height="900">
<path d="M0 0 C-2.0884274 8.65364334 -4.30315006 17.20472971 -6.9921875 25.6953125 C-8.49509183 30.62344066 -9.77948848 35.60256912 -11.0703125 40.58984375 C-11.65861332 42.7477707 -12.30090628 44.89230286 -13.015625 47.01171875 C-14.08911296 50.27052148 -14.87361524 53.52792244 -15.625 56.875 C-16.01558594 58.60363281 -16.01558594 58.60363281 -16.4140625 60.3671875 C-16.60742188 61.23601562 -16.80078125 62.10484375 -17 63 C-17.66 63 -18.32 63 -19 63 C-19.02578125 63.57105469 -19.0515625 64.14210938 -19.078125 64.73046875 C-19.51838408 71.02417235 -20.94966476 76.59296584 -22.89453125 82.58203125 C-24.3774406 87.16699832 -25.67760585 91.79701475 -26.98828125 96.43359375 C-27.68423784 98.88690792 -28.39056248 101.33729697 -29.10546875 103.78515625 C-29.64107422 105.62400391 -29.64107422 105.62400391 -30.1875 107.5 C-30.51105469 108.6034375 -30.83460938 109.706875 -31.16796875 110.84375 C-31.97008549 113.88652147 -32.53622375 116.88941991 -33 120 C-33.66 120 -34.32 120 -35 120 C-35.0825 121.010625 -35.165 122.02125 -35.25 123.0625 C-36.53148386 133.27827276 -40.05634685 143.33558741 -43.125 153.12890625 C-44.221716 156.72750561 -45.11737061 160.34339253 -46 164 C-46.66084583 166.33498858 -47.32672187 168.6685658 -48 171 C-46.86691406 170.51273438 -45.73382812 170.02546875 -44.56640625 169.5234375 C-32.65840348 164.40871502 -20.73268434 159.33668679 -8.79922485 154.28173828 C0.89618493 150.17436534 10.57806371 146.03739669 20.25 141.875 C30.66871759 137.39465629 41.13360018 133.03660735 51.62255859 128.72363281 C63.03574642 124.01624795 74.37916884 119.14994064 85.71118164 114.25073242 C89.12756505 112.7750779 92.54943526 111.31292527 95.97595215 109.86096191 C97.35190132 109.27567939 98.72594899 108.6859106 100.0982666 108.09216309 C102.13583053 107.21262118 104.18002706 106.35060973 106.2265625 105.4921875 C107.41072754 104.98800293 108.59489258 104.48381836 109.81494141 103.96435547 C113.11196029 102.96610125 114.75864832 102.97645537 118 104 C117.67128906 105.28003906 117.67128906 105.28003906 117.3359375 106.5859375 C114.80012288 116.58488132 112.45319014 126.6196657 110.19482422 136.68505859 C108.87944274 142.47537667 107.43236117 148.16987658 105.65063477 153.83520508 C104.78782448 156.70595135 104.15051868 159.604689 103.52734375 162.53515625 C102.66320558 166.57420208 101.71477135 170.59371046 100.78125 174.6171875 C100.27517293 176.80850122 99.77480375 179.0011442 99.28125 181.1953125 C98.00728269 186.83123308 96.63768018 192.42313089 95.125 198 C92.95780506 206.01028592 91.04764483 214.07493641 89.1484375 222.15234375 C88.29875743 225.76154496 87.41501698 229.36033964 86.50927734 232.95581055 C85.51616802 236.94205424 84.57396626 240.94056392 83.625 244.9375 C83.40730957 245.85192871 83.18961914 246.76635742 82.96533203 247.70849609 C81.9311628 252.05744589 80.90258207 256.40754348 79.890625 260.76171875 C77.08673458 272.8172533 77.08673458 272.8172533 75.5625 278.25 C73.54422295 285.44704288 71.89649939 292.73745753 70.18359375 300.01171875 C69.32145801 303.66782572 68.42512499 307.31342266 67.50708008 310.95581055 C66.72697941 314.10062656 65.99075557 317.25556382 65.24926758 320.40966797 C62.99547579 329.98718129 60.6287726 339.51805167 58 349 C57.89945313 350.16917969 57.79890625 351.33835937 57.6953125 352.54296875 C54.82372514 358.39862501 48.88806502 359.68102475 43.0625 361.9375 C41.77108695 362.46030819 40.48072581 362.98572194 39.19140625 363.51367188 C36.63021827 364.5585689 34.06434789 365.59006975 31.49267578 366.60888672 C27.13480107 368.34460391 22.81621911 370.163891 18.5 372 C16.99494 372.63186385 15.48972691 373.26336316 13.984375 373.89453125 C7.89227988 376.45955817 1.82281661 379.07725058 -4.25 381.6875 C-14.50050588 386.09091107 -24.77204667 390.44085304 -35.0625 394.75 C-35.72012329 395.0255069 -36.37774658 395.30101379 -37.05529785 395.58486938 C-43.25151908 398.18049302 -49.44941725 400.77199365 -55.65234375 403.3515625 C-63.13636243 406.47112267 -70.53306221 409.68641153 -77.85913086 413.16577148 C-87.1064293 417.51301662 -96.57417482 421.36909763 -105.99560547 425.31933594 C-110.42794004 427.17835659 -114.85657456 429.04612317 -119.28515625 430.9140625 C-133.19992086 436.78178691 -147.11637695 442.64462014 -161.0625 448.4375 C-170.75792319 452.46667034 -180.41366603 456.58293677 -190.05664062 460.73583984 C-193.39468584 462.16951587 -196.73621661 463.59488411 -200.078125 465.01953125 C-201.94143489 465.81479947 -203.80465906 466.61026812 -205.66784668 467.40582275 C-207.43462738 468.15960916 -209.20216281 468.91162583 -210.96972656 469.66357422 C-216.5691244 472.0564862 -222.13150889 474.50475821 -227.65234375 477.07421875 C-233.3973692 479.7452275 -239.20127104 482.2218554 -245.0625 484.625 C-254.07194304 488.34791035 -263.04581886 492.14612241 -272 496 C-280.39702326 499.61124948 -288.80551363 503.18865719 -297.25 506.6875 C-308.92011632 511.52408036 -320.54228664 516.47143091 -332.16491699 521.42068481 C-343.76167361 526.35830466 -355.37098773 531.26385324 -367 536.125 C-383.20620577 542.88373683 -383.20620577 542.88373683 -399.24169922 550.03540039 C-407.14922917 553.67621824 -415.15888348 557.05369723 -423.18734741 560.41635132 C-427.38552964 562.17499743 -431.58122033 563.93957369 -435.77734375 565.703125 C-436.62929825 566.06101608 -437.48125275 566.41890717 -438.35902405 566.78764343 C-446.27012369 570.11148237 -454.17638909 573.44664053 -462.07757568 576.79397583 C-463.46344219 577.3808714 -464.84954349 577.96721293 -466.23590088 578.552948 C-472.39626668 581.15594473 -478.54488085 583.76936541 -484.61328125 586.58203125 C-489.56271005 588.85710559 -494.60762711 590.79923848 -499.70068359 592.72705078 C-505.13190708 594.82253689 -510.46889913 597.12945848 -515.8125 599.4375 C-516.99303955 599.94539062 -518.1735791 600.45328125 -519.38989258 600.9765625 C-531.015424 605.98357416 -542.61363688 611.05388965 -554.20640564 616.13621521 C-556.04401787 616.9418104 -557.88210821 617.74631475 -559.72021484 618.55078125 C-563.25210616 620.11139662 -566.76280878 621.71459442 -570.2590332 623.35351562 C-572 624 -572 624 -575 624 C-575 624.66 -575 625.32 -575 626 C-576.32 626 -577.64 626 -579 626 C-578.25 618.375 -578.25 618.375 -576 615 C-575.31285698 613.1126599 -575.31285698 613.1126599 -574.78125 611.05078125 C-574.46607422 609.90125977 -574.46607422 609.90125977 -574.14453125 608.72851562 C-573.93183594 607.93123047 -573.71914063 607.13394531 -573.5 606.3125 C-573.28730469 605.53455078 -573.07460938 604.75660156 -572.85546875 603.95507812 C-571.50437526 598.9858723 -570.23414698 593.999438 -569 589 C-568.34 589 -567.68 589 -567 589 C-566.89042969 588.14277344 -566.78085937 587.28554688 -566.66796875 586.40234375 C-565.78703692 580.04960773 -564.77084547 574.76335859 -562 569 C-559.25436972 561.85851607 -557.62609345 554.46157775 -556 547 C-555.34 547 -554.68 547 -554 547 C-553.81824219 546.01 -553.63648438 545.02 -553.44921875 544 C-552.14488916 537.08241049 -550.72623077 530.51924748 -548 524 C-546.53014404 519.76823728 -545.26804184 515.50130635 -544.0625 511.1875 C-542.97423567 507.34256611 -541.87759102 503.52341457 -540.5625 499.75 C-538.68466999 494.3228649 -537.26164579 488.75719657 -535.80102539 483.20605469 C-535.59727295 482.44969727 -535.39352051 481.69333984 -535.18359375 480.9140625 C-535.00368896 480.2329541 -534.82378418 479.5518457 -534.63842773 478.85009766 C-534 477 -534 477 -532 474 C-531.46471592 471.9513473 -530.99270855 469.88576495 -530.5625 467.8125 C-529.59151039 463.40906213 -528.4926844 459.31092687 -526.8125 455.13671875 C-524.93132967 450.18960255 -523.53068276 445.06391288 -522 440 C-521.31360117 437.77049402 -520.62612143 435.5413205 -519.9375 433.3125 C-519.29162101 431.20834735 -518.64578464 429.10418161 -518 427 C-517.731875 426.13632812 -517.46375 425.27265625 -517.1875 424.3828125 C-515.2230364 417.97784262 -513.57725581 411.51037505 -512 405 C-512.66 405 -513.32 405 -514 405 C-514.33 405.66 -514.66 406.32 -515 407 C-516.94921875 407.9375 -516.94921875 407.9375 -519.6875 409 C-525.495524 411.34227462 -531.18551718 413.88373632 -536.875 416.5 C-549.54148933 422.29920817 -562.32891763 427.812629 -575.12109375 433.32666016 C-580.79567958 435.77344279 -586.46489995 438.2326018 -592.13442993 440.69107056 C-595.24960389 442.04184048 -598.36501727 443.39205781 -601.48046875 444.7421875 C-602.40710579 445.14377831 -602.40710579 445.14377831 -603.35246277 445.55348206 C-607.15208157 447.19995159 -610.95235912 448.84489103 -614.75311279 450.48873901 C-629.34828638 456.8012987 -643.92759385 463.14784843 -658.4765625 469.56640625 C-662.5651029 471.36992707 -666.65865507 473.16140924 -670.75610352 474.94458008 C-676.17597616 477.30378753 -681.57232535 479.7055665 -686.9375 482.1875 C-687.97648438 482.66703125 -689.01546875 483.1465625 -690.0859375 483.640625 C-691.952283 484.51125266 -693.8123848 485.39547178 -695.6640625 486.296875 C-696.45554687 486.67328125 -697.24703125 487.0496875 -698.0625 487.4375 C-698.73410156 487.76621094 -699.40570312 488.09492187 -700.09765625 488.43359375 C-702.41449075 489.123411 -703.7417978 488.76949875 -706 488 C-705.71125 487.319375 -705.4225 486.63875 -705.125 485.9375 C-703.42763073 481.50548023 -702.25634469 476.93325489 -701 472.359375 C-700.505 470.57273437 -700.505 470.57273437 -700 468.75 C-699.505 466.94789063 -699.505 466.94789063 -699 465.109375 C-698 462 -698 462 -696 459 C-695.46649928 457.13973048 -694.99392215 455.26155788 -694.5625 453.375 C-692.89217801 446.42646052 -690.78122916 439.85566225 -688.0625 433.25 C-685.63989052 427.28524182 -683.84726066 421.16203009 -682 415 C-681.1534242 412.24761922 -680.296568 409.49850433 -679.4375 406.75 C-679.22303223 406.06228516 -679.00856445 405.37457031 -678.78759766 404.66601562 C-677.7097547 401.22158632 -676.60541659 397.78988654 -675.4375 394.375 C-674.15459378 390.59876191 -673.07678478 386.77735515 -672 382.9375 C-670.56042689 377.83305946 -668.93794731 372.9329568 -667 368 C-665.52848218 363.74630072 -664.26501951 359.46179727 -663.0625 355.125 C-661.59802269 349.96420357 -659.96789334 344.98401128 -658 340 C-653.66131676 328.52699661 -650.13589863 316.8546471 -647 305 C-646.34 305 -645.68 305 -645 305 C-644.814375 303.4840625 -644.814375 303.4840625 -644.625 301.9375 C-644.02288629 298.14418365 -643.07873833 294.68245566 -642 291 C-641.505 289.19789063 -641.505 289.19789063 -641 287.359375 C-640.505 285.57273437 -640.505 285.57273437 -640 283.75 C-639.505 281.94789063 -639.505 281.94789063 -639 280.109375 C-638 277 -638 277 -636 274 C-635.46649928 272.13973048 -634.99392215 270.26155788 -634.5625 268.375 C-633.46938984 263.78615683 -632.17532436 259.36709895 -630.62890625 254.9140625 C-629.88133697 252.63885166 -629.38117345 250.36327536 -629 248 C-628.34 248 -627.68 248 -627 248 C-626.83564453 246.93072266 -626.83564453 246.93072266 -626.66796875 245.83984375 C-625.71842789 240.10399936 -624.38720645 235.3253067 -622 230 C-619.93031483 223.79094449 -618.11759532 217.51204729 -616.4375 211.1875 C-615.39796282 207.29488523 -614.15398565 203.57648156 -612.68359375 199.828125 C-612.03122672 198.08350918 -611.51169471 196.2909315 -611 194.5 C-610.26104084 191.91364295 -609.46162745 189.50023137 -608.5 187 C-607.11421284 183.38040666 -606.04125788 179.73627827 -605 176 C-604.65453125 174.93652344 -604.3090625 173.87304688 -603.953125 172.77734375 C-603.57671875 171.61332031 -603.2003125 170.44929687 -602.8125 169.25 C-602.44769531 168.14140625 -602.08289063 167.0328125 -601.70703125 165.890625 C-600.71793832 162.95856666 -600.71793832 162.95856666 -602 160 C-587.311277 154.33187663 -572.60968821 148.7006259 -557.8828125 143.13232422 C-551.73217673 140.80427209 -545.58835378 138.46039192 -539.45703125 136.08203125 C-538.255625 135.61667969 -537.05421875 135.15132812 -535.81640625 134.671875 C-533.52490762 133.7828655 -531.23449425 132.89105228 -528.9453125 131.99609375 C-527.92824219 131.60164062 -526.91117188 131.2071875 -525.86328125 130.80078125 C-524.96907471 130.45184814 -524.07486816 130.10291504 -523.15356445 129.7434082 C-521 129 -521 129 -519 129 C-518.67 128.34 -518.34 127.68 -518 127 C-516.01783416 126.28204246 -514.01187338 125.62992853 -512 125 C-508.83348077 123.81452544 -505.69208805 122.56497697 -502.546875 121.32421875 C-500.6465731 120.57786216 -498.74626354 119.83152508 -496.84594727 119.08520508 C-495.85217072 118.69426666 -494.85839417 118.30332825 -493.83450317 117.90054321 C-478.76776675 111.97524461 -463.69165073 106.07675095 -448.5625 100.3125 C-447.89244934 100.05712463 -447.22239868 99.80174927 -446.53204346 99.53863525 C-443.80664833 98.50002792 -441.08117331 97.46163083 -438.35552979 96.42367554 C-416.70600331 88.17613053 -395.09410964 79.82894172 -373.5 71.4375 C-372.76904114 71.15367462 -372.03808228 70.86984924 -371.28497314 70.5774231 C-353.69796616 63.7503848 -353.69796616 63.7503848 -336.25 56.578125 C-328.79163778 53.45474961 -321.22515443 50.61847586 -313.66323853 47.75778198 C-309.0067164 45.99573211 -304.3529296 44.22649008 -299.69921875 42.45703125 C-298.73465256 42.09033829 -297.77008636 41.72364532 -296.77629089 41.34584045 C-286.44088307 37.41295091 -276.12567994 33.4282348 -265.8125 29.4375 C-263.98219644 28.72976934 -262.15187419 28.02208699 -260.3215332 27.31445312 C-253.05158603 24.50335558 -245.78203044 21.6912587 -238.51464844 18.87353516 C-234.07742134 17.15322814 -229.63890771 15.43627847 -225.19955444 13.72146606 C-223.55910398 13.08706821 -221.9191281 12.45144137 -220.2796936 11.81442261 C-212.42313704 8.76204664 -204.55083323 5.76416192 -196.58203125 3.015625 C-195.38425049 2.60086914 -194.18646973 2.18611328 -192.95239258 1.75878906 C-190 1 -190 1 -187 2 C-187.93369093 4.85546255 -188.87182401 7.70933854 -189.8125 10.5625 C-190.07353516 11.36236328 -190.33457031 12.16222656 -190.60351562 12.98632812 C-191.78008038 16.54507336 -192.99999566 19.99998993 -194.484375 23.4453125 C-196.78568497 28.84271476 -198.50110341 34.41913976 -200.30664062 39.99804688 C-202.05305855 45.33065039 -203.96475416 50.53149674 -206.15258789 55.69995117 C-207.04297316 58.1166379 -207.55850923 60.46611731 -208 63 C-208.66 63 -209.32 63 -210 63 C-210.18175781 63.85722656 -210.36351562 64.71445313 -210.55078125 65.59765625 C-211.89709539 71.72165954 -213.35128222 77.29506941 -216 83 C-216.90739131 85.3079893 -217.80226331 87.62092287 -218.6875 89.9375 C-219.12449219 91.08089844 -219.56148437 92.22429687 -220.01171875 93.40234375 C-220.33785156 94.25957031 -220.66398437 95.11679688 -221 96 C-193.10705851 83.97753594 -165.45853961 71.41700549 -137.8182373 58.82806396 C-124.18304346 52.6183065 -110.54085539 46.42505768 -96.87207031 40.28955078 C-94.81648437 39.36659898 -92.76117744 38.44302567 -90.70605469 37.51904297 C-76.77475129 31.25555056 -62.82982781 25.02709567 -48.84130859 18.89208984 C-42.35753159 16.04583404 -35.89143708 13.16323115 -29.4375 10.25 C-27.83203359 9.52864063 -26.2265649 8.80728632 -24.62109375 8.0859375 C-21.52172062 6.69177386 -18.43250448 5.27754648 -15.34765625 3.8515625 C-13.89857255 3.19241136 -12.44936044 2.53354241 -11 1.875 C-10.34700928 1.56723633 -9.69401855 1.25947266 -9.02124023 0.94238281 C-5.68201747 -0.56028966 -3.47713006 -1.51255157 0 0 Z " fill="#FDFDFE" transform="translate(745,138)"/>
<path d="M0 0 C-2.0884274 8.65364334 -4.30315006 17.20472971 -6.9921875 25.6953125 C-8.49509183 30.62344066 -9.77948848 35.60256912 -11.0703125 40.58984375 C-11.65861332 42.7477707 -12.30090628 44.89230286 -13.015625 47.01171875 C-14.08911296 50.27052148 -14.87361524 53.52792244 -15.625 56.875 C-16.01558594 58.60363281 -16.01558594 58.60363281 -16.4140625 60.3671875 C-16.60742188 61.23601562 -16.80078125 62.10484375 -17 63 C-17.66 63 -18.32 63 -19 63 C-19.02578125 63.57105469 -19.0515625 64.14210938 -19.078125 64.73046875 C-19.51838408 71.02417235 -20.94966476 76.59296584 -22.89453125 82.58203125 C-24.3774406 87.16699832 -25.67760585 91.79701475 -26.98828125 96.43359375 C-27.68423784 98.88690792 -28.39056248 101.33729697 -29.10546875 103.78515625 C-29.64107422 105.62400391 -29.64107422 105.62400391 -30.1875 107.5 C-30.51105469 108.6034375 -30.83460938 109.706875 -31.16796875 110.84375 C-31.97008549 113.88652147 -32.53622375 116.88941991 -33 120 C-33.66 120 -34.32 120 -35 120 C-35.0825 121.010625 -35.165 122.02125 -35.25 123.0625 C-36.53148386 133.27827276 -40.05634685 143.33558741 -43.125 153.12890625 C-44.221716 156.72750561 -45.11737061 160.34339253 -46 164 C-46.66084583 166.33498858 -47.32672187 168.6685658 -48 171 C-46.86691406 170.51273438 -45.73382812 170.02546875 -44.56640625 169.5234375 C-32.65840348 164.40871502 -20.73268434 159.33668679 -8.79922485 154.28173828 C0.89618493 150.17436534 10.57806371 146.03739669 20.25 141.875 C30.66871759 137.39465629 41.13360018 133.03660735 51.62255859 128.72363281 C63.03574642 124.01624795 74.37916884 119.14994064 85.71118164 114.25073242 C89.12756505 112.7750779 92.54943526 111.31292527 95.97595215 109.86096191 C97.35190132 109.27567939 98.72594899 108.6859106 100.0982666 108.09216309 C102.13583053 107.21262118 104.18002706 106.35060973 106.2265625 105.4921875 C107.41072754 104.98800293 108.59489258 104.48381836 109.81494141 103.96435547 C113.11196029 102.96610125 114.75864832 102.97645537 118 104 C117.67128906 105.28003906 117.67128906 105.28003906 117.3359375 106.5859375 C114.80012288 116.58488132 112.45319014 126.6196657 110.19482422 136.68505859 C108.87944274 142.47537667 107.43236117 148.16987658 105.65063477 153.83520508 C104.78782448 156.70595135 104.15051868 159.604689 103.52734375 162.53515625 C102.66320558 166.57420208 101.71477135 170.59371046 100.78125 174.6171875 C100.27517293 176.80850122 99.77480375 179.0011442 99.28125 181.1953125 C98.00728269 186.83123308 96.63768018 192.42313089 95.125 198 C92.95780506 206.01028592 91.04764483 214.07493641 89.1484375 222.15234375 C88.29875743 225.76154496 87.41501698 229.36033964 86.50927734 232.95581055 C85.51616802 236.94205424 84.57396626 240.94056392 83.625 244.9375 C83.40730957 245.85192871 83.18961914 246.76635742 82.96533203 247.70849609 C81.9311628 252.05744589 80.90258207 256.40754348 79.890625 260.76171875 C77.08673458 272.8172533 77.08673458 272.8172533 75.5625 278.25 C73.54422295 285.44704288 71.89649939 292.73745753 70.18359375 300.01171875 C69.32145801 303.66782572 68.42512499 307.31342266 67.50708008 310.95581055 C66.72697941 314.10062656 65.99075557 317.25556382 65.24926758 320.40966797 C62.99547579 329.98718129 60.6287726 339.51805167 58 349 C57.89945313 350.16917969 57.79890625 351.33835937 57.6953125 352.54296875 C54.82372514 358.39862501 48.88806502 359.68102475 43.0625 361.9375 C41.77108695 362.46030819 40.48072581 362.98572194 39.19140625 363.51367188 C36.63021827 364.5585689 34.06434789 365.59006975 31.49267578 366.60888672 C27.13480107 368.34460391 22.81621911 370.163891 18.5 372 C16.99494 372.63186385 15.48972691 373.26336316 13.984375 373.89453125 C7.89227988 376.45955817 1.82281661 379.07725058 -4.25 381.6875 C-14.50050588 386.09091107 -24.77204667 390.44085304 -35.0625 394.75 C-35.72012329 395.0255069 -36.37774658 395.30101379 -37.05529785 395.58486938 C-43.25151908 398.18049302 -49.44941725 400.77199365 -55.65234375 403.3515625 C-63.13636243 406.47112267 -70.53306221 409.68641153 -77.85913086 413.16577148 C-87.1064293 417.51301662 -96.57417482 421.36909763 -105.99560547 425.31933594 C-110.42794004 427.17835659 -114.85657456 429.04612317 -119.28515625 430.9140625 C-133.19992086 436.78178691 -147.11637695 442.64462014 -161.0625 448.4375 C-170.75792319 452.46667034 -180.41366603 456.58293677 -190.05664062 460.73583984 C-193.39468584 462.16951587 -196.73621661 463.59488411 -200.078125 465.01953125 C-201.94143489 465.81479947 -203.80465906 466.61026812 -205.66784668 467.40582275 C-207.43462738 468.15960916 -209.20216281 468.91162583 -210.96972656 469.66357422 C-216.5691244 472.0564862 -222.13150889 474.50475821 -227.65234375 477.07421875 C-233.3973692 479.7452275 -239.20127104 482.2218554 -245.0625 484.625 C-254.07194304 488.34791035 -263.04581886 492.14612241 -272 496 C-280.39702326 499.61124948 -288.80551363 503.18865719 -297.25 506.6875 C-308.92011632 511.52408036 -320.54228664 516.47143091 -332.16491699 521.42068481 C-343.76167361 526.35830466 -355.37098773 531.26385324 -367 536.125 C-383.20620577 542.88373683 -383.20620577 542.88373683 -399.24169922 550.03540039 C-407.14922917 553.67621824 -415.15888348 557.05369723 -423.18734741 560.41635132 C-427.38552964 562.17499743 -431.58122033 563.93957369 -435.77734375 565.703125 C-436.62929825 566.06101608 -437.48125275 566.41890717 -438.35902405 566.78764343 C-446.27012369 570.11148237 -454.17638909 573.44664053 -462.07757568 576.79397583 C-463.46344219 577.3808714 -464.84954349 577.96721293 -466.23590088 578.552948 C-472.39626668 581.15594473 -478.54488085 583.76936541 -484.61328125 586.58203125 C-489.56271005 588.85710559 -494.60762711 590.79923848 -499.70068359 592.72705078 C-505.13190708 594.82253689 -510.46889913 597.12945848 -515.8125 599.4375 C-516.99303955 599.94539062 -518.1735791 600.45328125 -519.38989258 600.9765625 C-531.015424 605.98357416 -542.61363688 611.05388965 -554.20640564 616.13621521 C-556.04401787 616.9418104 -557.88210821 617.74631475 -559.72021484 618.55078125 C-563.25210616 620.11139662 -566.76280878 621.71459442 -570.2590332 623.35351562 C-572 624 -572 624 -575 624 C-575 624.66 -575 625.32 -575 626 C-576.32 626 -577.64 626 -579 626 C-578.25 618.375 -578.25 618.375 -576 615 C-575.31285698 613.1126599 -575.31285698 613.1126599 -574.78125 611.05078125 C-574.46607422 609.90125977 -574.46607422 609.90125977 -574.14453125 608.72851562 C-573.93183594 607.93123047 -573.71914063 607.13394531 -573.5 606.3125 C-573.28730469 605.53455078 -573.07460938 604.75660156 -572.85546875 603.95507812 C-571.50437526 598.9858723 -570.23414698 593.999438 -569 589 C-568.34 589 -567.68 589 -567 589 C-566.89042969 588.14277344 -566.78085937 587.28554688 -566.66796875 586.40234375 C-565.78703692 580.04960773 -564.77084547 574.76335859 -562 569 C-559.25436972 561.85851607 -557.62609345 554.46157775 -556 547 C-555.34 547 -554.68 547 -554 547 C-553.81824219 546.01 -553.63648438 545.02 -553.44921875 544 C-552.14488916 537.08241049 -550.72623077 530.51924748 -548 524 C-546.53014404 519.76823728 -545.26804184 515.50130635 -544.0625 511.1875 C-542.97423567 507.34256611 -541.87759102 503.52341457 -540.5625 499.75 C-538.68466999 494.3228649 -537.26164579 488.75719657 -535.80102539 483.20605469 C-535.59727295 482.44969727 -535.39352051 481.69333984 -535.18359375 480.9140625 C-535.00368896 480.2329541 -534.82378418 479.5518457 -534.63842773 478.85009766 C-534 477 -534 477 -532 474 C-531.46471592 471.9513473 -530.99270855 469.88576495 -530.5625 467.8125 C-529.59151039 463.40906213 -528.4926844 459.31092687 -526.8125 455.13671875 C-524.93132967 450.18960255 -523.53068276 445.06391288 -522 440 C-521.31360117 437.77049402 -520.62612143 435.5413205 -519.9375 433.3125 C-519.29162101 431.20834735 -518.64578464 429.10418161 -518 427 C-517.731875 426.13632812 -517.46375 425.27265625 -517.1875 424.3828125 C-515.2230364 417.97784262 -513.57725581 411.51037505 -512 405 C-512.66 405 -513.32 405 -514 405 C-514.33 405.66 -514.66 406.32 -515 407 C-516.94921875 407.9375 -516.94921875 407.9375 -519.6875 409 C-525.495524 411.34227462 -531.18551718 413.88373632 -536.875 416.5 C-549.54148933 422.29920817 -562.32891763 427.812629 -575.12109375 433.32666016 C-580.79567958 435.77344279 -586.46489995 438.2326018 -592.13442993 440.69107056 C-595.24960389 442.04184048 -598.36501727 443.39205781 -601.48046875 444.7421875 C-602.40710579 445.14377831 -602.40710579 445.14377831 -603.35246277 445.55348206 C-607.15208157 447.19995159 -610.95235912 448.84489103 -614.75311279 450.48873901 C-629.34828638 456.8012987 -643.92759385 463.14784843 -658.4765625 469.56640625 C-662.5651029 471.36992707 -666.65865507 473.16140924 -670.75610352 474.94458008 C-676.17597616 477.30378753 -681.57232535 479.7055665 -686.9375 482.1875 C-687.97648438 482.66703125 -689.01546875 483.1465625 -690.0859375 483.640625 C-691.952283 484.51125266 -693.8123848 485.39547178 -695.6640625 486.296875 C-696.45554687 486.67328125 -697.24703125 487.0496875 -698.0625 487.4375 C-698.73410156 487.76621094 -699.40570312 488.09492187 -700.09765625 488.43359375 C-702.41449075 489.123411 -703.7417978 488.76949875 -706 488 C-705.71125 487.319375 -705.4225 486.63875 -705.125 485.9375 C-703.42763073 481.50548023 -702.25634469 476.93325489 -701 472.359375 C-700.505 470.57273437 -700.505 470.57273437 -700 468.75 C-699.505 466.94789063 -699.505 466.94789063 -699 465.109375 C-698 462 -698 462 -696 459 C-695.46649928 457.13973048 -694.99392215 455.26155788 -694.5625 453.375 C-692.89217801 446.42646052 -690.78122916 439.85566225 -688.0625 433.25 C-685.63989052 427.28524182 -683.84726066 421.16203009 -682 415 C-681.1534242 412.24761922 -680.296568 409.49850433 -679.4375 406.75 C-679.22303223 406.06228516 -679.00856445 405.37457031 -678.78759766 404.66601562 C-677.7097547 401.22158632 -676.60541659 397.78988654 -675.4375 394.375 C-674.15459378 390.59876191 -673.07678478 386.77735515 -672 382.9375 C-670.56042689 377.83305946 -668.93794731 372.9329568 -667 368 C-665.52848218 363.74630072 -664.26501951 359.46179727 -663.0625 355.125 C-661.59802269 349.96420357 -659.96789334 344.98401128 -658 340 C-653.66131676 328.52699661 -650.13589863 316.8546471 -647 305 C-646.34 305 -645.68 305 -645 305 C-644.814375 303.4840625 -644.814375 303.4840625 -644.625 301.9375 C-644.02288629 298.14418365 -643.07873833 294.68245566 -642 291 C-641.505 289.19789063 -641.505 289.19789063 -641 287.359375 C-640.505 285.57273437 -640.505 285.57273437 -640 283.75 C-639.505 281.94789063 -639.505 281.94789063 -639 280.109375 C-638 277 -638 277 -636 274 C-635.46649928 272.13973048 -634.99392215 270.26155788 -634.5625 268.375 C-633.46938984 263.78615683 -632.17532436 259.36709895 -630.62890625 254.9140625 C-629.88133697 252.63885166 -629.38117345 250.36327536 -629 248 C-628.34 248 -627.68 248 -627 248 C-626.83564453 246.93072266 -626.83564453 246.93072266 -626.66796875 245.83984375 C-625.71842789 240.10399936 -624.38720645 235.3253067 -622 230 C-619.93031483 223.79094449 -618.11759532 217.51204729 -616.4375 211.1875 C-615.39796282 207.29488523 -614.15398565 203.57648156 -612.68359375 199.828125 C-612.03122672 198.08350918 -611.51169471 196.2909315 -611 194.5 C-610.26104084 191.91364295 -609.46162745 189.50023137 -608.5 187 C-607.11421284 183.38040666 -606.04125788 179.73627827 -605 176 C-604.65453125 174.93652344 -604.3090625 173.87304688 -603.953125 172.77734375 C-603.57671875 171.61332031 -603.2003125 170.44929687 -602.8125 169.25 C-602.44769531 168.14140625 -602.08289063 167.0328125 -601.70703125 165.890625 C-600.71793832 162.95856666 -600.71793832 162.95856666 -602 160 C-587.311277 154.33187663 -572.60968821 148.7006259 -557.8828125 143.13232422 C-551.73217673 140.80427209 -545.58835378 138.46039192 -539.45703125 136.08203125 C-538.255625 135.61667969 -537.05421875 135.15132812 -535.81640625 134.671875 C-533.52490762 133.7828655 -531.23449425 132.89105228 -528.9453125 131.99609375 C-527.92824219 131.60164062 -526.91117188 131.2071875 -525.86328125 130.80078125 C-524.96907471 130.45184814 -524.07486816 130.10291504 -523.15356445 129.7434082 C-521 129 -521 129 -519 129 C-518.67 128.34 -518.34 127.68 -518 127 C-516.01783416 126.28204246 -514.01187338 125.62992853 -512 125 C-508.83348077 123.81452544 -505.69208805 122.56497697 -502.546875 121.32421875 C-500.6465731 120.57786216 -498.74626354 119.83152508 -496.84594727 119.08520508 C-495.85217072 118.69426666 -494.85839417 118.30332825 -493.83450317 117.90054321 C-478.76776675 111.97524461 -463.69165073 106.07675095 -448.5625 100.3125 C-447.89244934 100.05712463 -447.22239868 99.80174927 -446.53204346 99.53863525 C-443.80664833 98.50002792 -441.08117331 97.46163083 -438.35552979 96.42367554 C-416.70600331 88.17613053 -395.09410964 79.82894172 -373.5 71.4375 C-372.76904114 71.15367462 -372.03808228 70.86984924 -371.28497314 70.5774231 C-353.69796616 63.7503848 -353.69796616 63.7503848 -336.25 56.578125 C-328.79163778 53.45474961 -321.22515443 50.61847586 -313.66323853 47.75778198 C-309.0067164 45.99573211 -304.3529296 44.22649008 -299.69921875 42.45703125 C-298.73465256 42.09033829 -297.77008636 41.72364532 -296.77629089 41.34584045 C-286.44088307 37.41295091 -276.12567994 33.4282348 -265.8125 29.4375 C-263.98219644 28.72976934 -262.15187419 28.02208699 -260.3215332 27.31445312 C-253.05158603 24.50335558 -245.78203044 21.6912587 -238.51464844 18.87353516 C-234.07742134 17.15322814 -229.63890771 15.43627847 -225.19955444 13.72146606 C-223.55910398 13.08706821 -221.9191281 12.45144137 -220.2796936 11.81442261 C-212.42313704 8.76204664 -204.55083323 5.76416192 -196.58203125 3.015625 C-195.38425049 2.60086914 -194.18646973 2.18611328 -192.95239258 1.75878906 C-190 1 -190 1 -187 2 C-187.93369093 4.85546255 -188.87182401 7.70933854 -189.8125 10.5625 C-190.07353516 11.36236328 -190.33457031 12.16222656 -190.60351562 12.98632812 C-191.78008038 16.54507336 -192.99999566 19.99998993 -194.484375 23.4453125 C-196.78568497 28.84271476 -198.50110341 34.41913976 -200.30664062 39.99804688 C-202.05305855 45.33065039 -203.96475416 50.53149674 -206.15258789 55.69995117 C-207.04297316 58.1166379 -207.55850923 60.46611731 -208 63 C-208.66 63 -209.32 63 -210 63 C-210.18175781 63.85722656 -210.36351562 64.71445313 -210.55078125 65.59765625 C-211.89709539 71.72165954 -213.35128222 77.29506941 -216 83 C-216.90739131 85.3079893 -217.80226331 87.62092287 -218.6875 89.9375 C-219.12449219 91.08089844 -219.56148437 92.22429687 -220.01171875 93.40234375 C-220.33785156 94.25957031 -220.66398437 95.11679688 -221 96 C-193.10705851 83.97753594 -165.45853961 71.41700549 -137.8182373 58.82806396 C-124.18304346 52.6183065 -110.54085539 46.42505768 -96.87207031 40.28955078 C-94.81648437 39.36659898 -92.76117744 38.44302567 -90.70605469 37.51904297 C-76.77475129 31.25555056 -62.82982781 25.02709567 -48.84130859 18.89208984 C-42.35753159 16.04583404 -35.89143708 13.16323115 -29.4375 10.25 C-27.83203359 9.52864063 -26.2265649 8.80728632 -24.62109375 8.0859375 C-21.52172062 6.69177386 -18.43250448 5.27754648 -15.34765625 3.8515625 C-13.89857255 3.19241136 -12.44936044 2.53354241 -11 1.875 C-10.34700928 1.56723633 -9.69401855 1.25947266 -9.02124023 0.94238281 C-5.68201747 -0.56028966 -3.47713006 -1.51255157 0 0 Z M-28.51953125 21.921875 C-29.49776855 22.35951172 -30.47600586 22.79714844 -31.48388672 23.24804688 C-32.5823291 23.74369141 -33.68077148 24.23933594 -34.8125 24.75 C-36.63185229 25.56480654 -38.45121487 26.37959024 -40.27081299 27.19384766 C-41.61570824 27.79591923 -42.96038571 28.39847746 -44.30487061 29.00146484 C-52.70029707 32.76644015 -61.11069927 36.49768009 -69.51983643 40.23190308 C-74.37699818 42.38917068 -79.23335264 44.54825441 -84.08984375 46.70703125 C-90.95899561 49.76017915 -97.82856881 52.81237572 -104.69873047 55.86325073 C-123.14231835 64.0536185 -141.58246096 72.25119638 -160 80.5 C-174.28209294 86.89657693 -188.57520351 93.26809689 -202.875 99.625 C-203.81972168 100.04515381 -204.76444336 100.46530762 -205.73779297 100.89819336 C-217.14229288 105.96963254 -228.55807377 111.01353277 -240 116 C-239.28469116 114.86232178 -239.28469116 114.86232178 -238.55493164 113.70166016 C-236.76891564 110.59849592 -236.14192609 107.877004 -235.4375 104.375 C-234.66402651 100.5557015 -234.17725203 98.26587805 -232 95 C-231.44823804 93.01365694 -230.95347425 91.0110597 -230.5 89 C-229.67689287 85.34969883 -229.09492844 83.14239267 -227 80 C-226.50569174 78.56320605 -226.06678615 77.10679764 -225.66796875 75.640625 C-225.42941162 74.77977295 -225.19085449 73.9189209 -224.94506836 73.03198242 C-224.6950708 72.11392822 -224.44507324 71.19587402 -224.1875 70.25 C-222.06425886 62.63008935 -219.7799808 55.12400015 -217.2265625 47.63671875 C-215.86747977 43.60708173 -214.57895084 39.55949851 -213.3125 35.5 C-213.00880493 34.52969849 -213.00880493 34.52969849 -212.69897461 33.53979492 C-211.40422178 29.37596912 -210.18423203 25.19618291 -209 21 C-215.53567328 22.85599575 -221.83555964 25.00281323 -228.1171875 27.5859375 C-229.44904839 28.12665642 -229.44904839 28.12665642 -230.80781555 28.67829895 C-232.77658065 29.47805534 -234.74452673 30.27983012 -236.71176147 31.08334351 C-241.80940012 33.16488052 -246.9125615 35.23279489 -252.01510429 37.3022747 C-253.95961188 38.09111231 -255.90389764 38.88049482 -257.84815979 39.66993713 C-276.27506155 47.14957662 -294.72976594 54.56037153 -313.18136597 61.97881317 C-316.19813006 63.19177406 -319.21480142 64.4049653 -322.23144531 65.6182251 C-347.26905474 75.68784372 -372.31453714 85.73739597 -397.375 95.75 C-423.4981006 106.18719798 -449.59394372 116.690807 -475.6793251 127.22188187 C-486.10785412 131.43188735 -496.53936684 135.63445022 -506.97231102 139.83350182 C-509.46173752 140.83544917 -511.95112666 141.83748928 -514.44050598 142.83955383 C-527.73692051 148.19172651 -527.73692051 148.19172651 -533.87307739 150.6600647 C-537.63207568 152.17216652 -541.39079972 153.68494815 -545.14933586 155.19819832 C-546.52737871 155.75287026 -547.90552407 156.30728762 -549.28378487 156.86141777 C-556.71506994 159.84928085 -564.12840934 162.87052529 -571.49655151 166.01177979 C-573.68422396 166.87534944 -575.78093643 167.51356295 -578.0625 168.0625 C-581.52226884 169.16668155 -582.18393154 169.92625195 -584 173 C-584.57229868 175.80883637 -584.57229868 175.80883637 -584.6875 178.75 C-584.75324219 179.73484375 -584.81898438 180.7196875 -584.88671875 181.734375 C-584.92410156 182.48203125 -584.96148438 183.2296875 -585 184 C-585.66 184 -586.32 184 -587 184 C-588.7494618 190.40215071 -588.7494618 190.40215071 -589 197 C-589.66 197 -590.32 197 -591 197 C-591.19335938 197.90363281 -591.38671875 198.80726563 -591.5859375 199.73828125 C-591.84632813 200.91777344 -592.10671875 202.09726562 -592.375 203.3125 C-592.63023437 204.48425781 -592.88546875 205.65601563 -593.1484375 206.86328125 C-594 210 -594 210 -596 213 C-596.66159642 215.41526028 -597.25760098 217.81064193 -597.8125 220.25 C-599.45062601 227.14786842 -601.52938248 233.75174762 -603.83984375 240.45703125 C-605.23223486 244.70921556 -606.28285376 248.99739293 -607.31640625 253.34765625 C-608.2665493 257.03421128 -609.5968993 260.46174606 -611 264 C-612.7479201 268.80678026 -613.93224389 273.7000518 -615.15234375 278.66015625 C-618.06589754 290.1398267 -621.20276943 301.79131128 -625.47265625 312.84765625 C-627.05664235 317.02005907 -628.23468408 321.25127236 -629.375 325.5625 C-631.25727282 332.51947188 -633.40791611 339.30960398 -635.7421875 346.12890625 C-637.44750839 351.24353457 -638.83465188 356.44940644 -640.21289062 361.66015625 C-641.13787179 365.10923857 -642.13535978 368.45465512 -643.4375 371.78125 C-645.48829925 377.08946943 -646.88737776 382.57570164 -648.375 388.0625 C-650.63316507 396.27287427 -653.04339523 404.35291363 -655.8203125 412.40234375 C-657.43182836 417.31693352 -658.76996677 422.29373271 -660.11669922 427.28613281 C-661.81476559 433.51192871 -663.82777089 439.58716412 -665.984375 445.66796875 C-667.03442385 449.11293671 -667.58239357 452.42764937 -668 456 C-661.69888188 454.0038086 -655.61761721 451.67812848 -649.54296875 449.078125 C-648.65522263 448.70161301 -647.7674765 448.32510101 -646.85282898 447.93717957 C-644.95161528 447.13047871 -643.05104227 446.32226645 -641.15106201 445.51266479 C-636.07896887 443.35163242 -631.00199104 441.20212133 -625.92578125 439.05078125 C-624.90516602 438.6178627 -623.88455078 438.18494415 -622.83300781 437.73890686 C-613.86199767 433.93549594 -604.87307994 430.17633638 -595.875 426.4375 C-592.95303459 425.22287361 -590.03116337 424.00802094 -587.109375 422.79296875 C-586.37714218 422.48849823 -585.64490936 422.18402771 -584.89048767 421.87033081 C-579.19909471 419.50235221 -573.51278376 417.12237599 -567.828125 414.73828125 C-566.95538437 414.37229324 -566.08264374 414.00630524 -565.18345642 413.62922668 C-564.30234695 413.25972397 -563.42123749 412.89022125 -562.51342773 412.50952148 C-538.04623995 402.24907001 -513.53126789 392.10618539 -489 382 C-489.20423584 382.66676758 -489.40847168 383.33353516 -489.61889648 384.02050781 C-489.88774658 384.90577148 -490.15659668 385.79103516 -490.43359375 386.703125 C-490.69970459 387.57614258 -490.96581543 388.44916016 -491.23999023 389.34863281 C-492.13568096 392.47333607 -492.83431279 395.61123718 -493.47265625 398.796875 C-494 401 -494 401 -494.91015625 403.6796875 C-496.2837535 407.864482 -497.32708866 412.09893158 -498.375 416.375 C-498.59196533 417.25043457 -498.80893066 418.12586914 -499.0324707 419.02783203 C-499.88843827 422.48241807 -500.73911916 425.93829076 -501.58837891 429.39453125 C-501.95139804 430.87083031 -502.31529065 432.34691494 -502.68017578 433.82275391 C-503.15750927 435.75368044 -503.63159806 437.68540825 -504.10546875 439.6171875 C-504.65711807 441.70333735 -505.26362969 443.77690054 -505.95703125 445.8203125 C-507.37955202 450.15713611 -508.42419602 454.56638361 -509.5 459 C-511.73705834 468.21939195 -511.73705834 468.21939195 -513 471.96875 C-514.46470615 476.4086405 -515.4520967 480.94638383 -516.5 485.5 C-517.78825337 491.09804648 -519.12338408 496.56428491 -521 502 C-521.35859872 503.49416133 -521.69445387 504.99409407 -522 506.5 C-522.50847566 509.00605862 -523.11661556 511.34837673 -523.9296875 513.77734375 C-525.16755675 517.50450481 -526.165394 521.25606287 -527.125 525.0625 C-527.30675781 525.75666016 -527.48851562 526.45082031 -527.67578125 527.16601562 C-528.60685704 530.85181565 -529.22250218 534.1952127 -529 538 C-529.66 538 -530.32 538 -531 538 C-531.19335938 539.01320313 -531.38671875 540.02640625 -531.5859375 541.0703125 C-531.84874923 542.42191568 -532.11178183 543.77347592 -532.375 545.125 C-532.50132812 545.79015625 -532.62765625 546.4553125 -532.7578125 547.140625 C-533.55927512 551.22808434 -534.65251105 555.06471978 -536 559 C-536.75793177 561.67529804 -537.44531186 564.3664037 -538.125 567.0625 C-538.30675781 567.75666016 -538.48851562 568.45082031 -538.67578125 569.16601562 C-539.60685704 572.85181565 -540.22250218 576.1952127 -540 580 C-540.66 580 -541.32 580 -542 580 C-542 581.98 -542 583.96 -542 586 C-541.34 586 -540.68 586 -540 586 C-539.67 585.34 -539.34 584.68 -539 584 C-537.02594055 583.05130336 -535.00808723 582.19343956 -532.9765625 581.375 C-532.34129135 581.11648254 -531.7060202 580.85796509 -531.05149841 580.59161377 C-529.65457833 580.02387036 -528.25641494 579.4591792 -526.85720825 578.89709473 C-522.97326891 577.3361913 -519.09884812 575.75189526 -515.22265625 574.171875 C-514.39593918 573.83565125 -513.56922211 573.49942749 -512.717453 573.15301514 C-503.13759675 569.25273808 -493.60012478 565.25216997 -484.0625 561.25 C-482.239127 560.48560086 -480.4157218 559.72127854 -478.59228516 558.95703125 C-474.9013529 557.40992705 -471.2106215 555.86234504 -467.52001953 554.31445312 C-459.40831857 550.91274323 -451.29398536 547.51732225 -443.17980957 544.121521 C-438.69661517 542.24526952 -434.21353069 540.36875545 -429.73046875 538.4921875 C-428.84251617 538.12050446 -427.9545636 537.74882141 -427.03970337 537.36587524 C-421.71475078 535.13680704 -416.39014693 532.90690811 -411.06582642 530.67633057 C-390.37125612 522.00656653 -369.66825104 513.35743274 -348.95513916 504.73205566 C-329.39140368 496.58485177 -309.84079731 488.40655167 -290.29443359 480.21777344 C-282.26118222 476.85247992 -274.22680831 473.48986792 -266.1925354 470.12701416 C-261.71164586 468.25144886 -257.23082642 466.37571609 -252.75 464.5 C-250.95833367 463.74999919 -249.166667 462.99999919 -247.375 462.25 C-246.488125 461.87875 -245.60125 461.5075 -244.6875 461.125 C-184.66666667 436 -124.64583333 410.875 -64.625 385.75 C-63.7382106 385.37878525 -62.8514212 385.0075705 -61.9377594 384.62510681 C-60.14522975 383.87474675 -58.35269842 383.12439071 -56.56016541 382.3740387 C-52.09418852 380.50458063 -47.62824051 378.63505364 -43.16235352 376.76538086 C-33.04866783 372.53132177 -22.93418359 368.29917902 -12.81889343 364.06895447 C-5.61985029 361.05794916 1.57746749 358.04284048 8.77397156 355.02577209 C13.30521146 353.12671107 17.83865272 351.23311824 22.37532043 349.34706116 C24.26201679 348.56200835 26.14770603 347.77459591 28.03295898 346.98608398 C30.21814549 346.07236419 32.40502023 345.16266548 34.59399414 344.25805664 C35.99959595 343.6681897 35.99959595 343.6681897 37.43359375 343.06640625 C38.62553345 342.5705603 38.62553345 342.5705603 39.84155273 342.06469727 C44.18291185 339.96552246 44.18291185 339.96552246 46.70384216 336.06871033 C46.81116165 335.31634598 46.91848114 334.56398163 47.02905273 333.78881836 C47.75403344 329.4184934 48.61753811 325.12170229 49.60961914 320.80297852 C49.91874494 319.44798564 50.22778852 318.09297399 50.53675842 316.73794556 C50.86954951 315.28493058 51.20234906 313.83191754 51.53515625 312.37890625 C51.88977595 310.82582576 52.24425933 309.27271414 52.59861755 307.71957397 C53.55338542 303.53617543 54.50967252 299.3531256 55.46627808 295.17014694 C57.29340067 287.17901064 59.11733987 279.18714685 60.94140625 271.1953125 C61.148866 270.28659079 61.35632576 269.37786907 61.57007217 268.44161034 C64.49738167 255.617608 67.40848322 242.79003559 70.30349541 229.95870399 C70.89653985 227.33040961 71.4899649 224.70220145 72.08351135 222.07402039 C72.47031474 220.36111639 72.85710987 218.64821052 73.24389648 216.93530273 C73.52669826 215.68289811 73.52669826 215.68289811 73.8152132 214.40519238 C74.93098848 209.46246259 76.04405289 204.51913117 77.15532017 199.57538605 C77.84572526 196.50686006 78.53861775 193.4388996 79.23216438 190.37108231 C79.55194389 188.95402252 79.87064498 187.53671885 80.18816948 186.11915207 C80.62198088 184.1828873 81.05991852 182.24754838 81.49804688 180.31225586 C81.86295227 178.69111122 81.86295227 178.69111122 82.23522949 177.03721619 C83.00946826 173.96239768 83.98778701 171.00344441 85 168 C85.37366113 166.00714063 85.70740515 164.00636471 86 162 C86.65762236 157.80053754 87.59854253 154.01751141 89 150 C89.165 148.845 89.33 147.69 89.5 146.5 C90 143 90 143 91 140.0625 C92.2168445 136.33591373 92.56671783 132.8995395 93 129 C93.31323028 127.32943851 93.63678515 125.66041075 94 124 C86.74965824 126.30554801 79.76779697 129.06740502 72.75 132 C71.50305885 132.51875094 70.25606804 133.03738251 69.0090332 133.5559082 C38.65064588 146.19828399 8.39632434 159.09186517 -21.86442566 171.96566772 C-30.5738256 175.67040537 -39.28672041 179.36689822 -48 183.0625 C-48.72247925 183.3689444 -49.4449585 183.67538879 -50.18933105 183.99111938 C-54.12614317 185.66092912 -58.06303057 187.33056119 -62 189 C-61.74895508 188.08105957 -61.49791016 187.16211914 -61.23925781 186.21533203 C-58.87633852 177.47520315 -56.71019347 168.71587259 -54.75 159.875 C-54.481875 158.69679688 -54.21375 157.51859375 -53.9375 156.3046875 C-53.68484375 155.1703125 -53.4321875 154.0359375 -53.171875 152.8671875 C-52.9459668 151.85769043 -52.72005859 150.84819336 -52.48730469 149.80810547 C-52.02395765 147.13805656 -51.90720748 144.70273673 -52 142 C-51.34 142 -50.68 142 -50 142 C-49.87882813 141.11957031 -49.75765625 140.23914063 -49.6328125 139.33203125 C-49.46523438 138.17058594 -49.29765625 137.00914062 -49.125 135.8125 C-48.96257813 134.66394531 -48.80015625 133.51539063 -48.6328125 132.33203125 C-48 129 -48 129 -47.07324219 126.78149414 C-45.73551418 123.31453892 -44.96672319 119.78782871 -44.1953125 116.1640625 C-44.03006073 115.40765472 -43.86480896 114.65124695 -43.69454956 113.87191772 C-43.16727691 111.45714608 -42.64555942 109.04122704 -42.125 106.625 C-38.32388009 89.01014195 -38.32388009 89.01014195 -36.02734375 80.60546875 C-33.26729722 70.49612186 -31.09887492 60.25336952 -28.85180664 50.02026367 C-24.85539919 31.85857079 -24.85539919 31.85857079 -22.50024414 24.78833008 C-21.86530696 22.82798026 -21.86530696 22.82798026 -22 20 C-24.5866262 20 -26.15364004 20.85716683 -28.51953125 21.921875 Z " fill="#000101" transform="translate(745,138)"/>
<path d="M0 0 C-0.94560844 5.98470607 -2.17340284 11.81338794 -3.796875 17.65234375 C-6.35091284 27.02898164 -8.41171025 36.51101076 -10.5 46 C-12.82195775 56.55075432 -15.22049997 67.03486936 -18.06689453 77.45800781 C-19.94770804 84.59742237 -21.42746715 91.82943732 -22.97460938 99.046875 C-23.22404297 100.19414062 -23.47347656 101.34140625 -23.73046875 102.5234375 C-24.06147583 104.069104 -24.06147583 104.069104 -24.39916992 105.64599609 C-25 108 -25 108 -26 109 C-26.39666227 111.18019479 -26.74315237 113.3696463 -27.0625 115.5625 C-27.23910156 116.76003906 -27.41570313 117.95757812 -27.59765625 119.19140625 C-27.73042969 120.11824219 -27.86320313 121.04507813 -28 122 C-28.66 122 -29.32 122 -30 122 C-30.0825 123.27875 -30.165 124.5575 -30.25 125.875 C-30.98828711 133.24747274 -32.75383495 140.39622763 -34.43847656 147.59814453 C-35.00489325 150.02093036 -35.56174047 152.44577188 -36.1171875 154.87109375 C-36.47340952 156.4141893 -36.83016081 157.95716278 -37.1875 159.5 C-37.43753784 160.58583374 -37.43753784 160.58583374 -37.69262695 161.69360352 C-38.88341162 166.76682324 -38.88341162 166.76682324 -40 169 C-39.17540283 168.64510498 -38.35080566 168.29020996 -37.5012207 167.92456055 C-14.62925737 158.08703941 8.29050886 148.36594821 31.23402405 138.69659424 C38.10868643 135.79889515 44.9807268 132.89504108 51.8515625 129.98828125 C85.37804992 115.80641143 85.37804992 115.80641143 100.29638672 109.599823 C102.13337434 108.83503402 103.9690518 108.06710046 105.8046875 107.29907227 C107.40763672 106.63476196 107.40763672 106.63476196 109.04296875 105.95703125 C110.42005005 105.38432495 110.42005005 105.38432495 111.82495117 104.80004883 C114 104 114 104 116 104 C115.855625 104.68578125 115.71125 105.3715625 115.5625 106.078125 C114.72261998 110.44083512 114.13097148 114.83729249 113.5 119.234375 C113 122 113 122 112 123 C111.45892098 125.96456743 111.03460937 128.94031251 110.59765625 131.921875 C110.02954036 134.84785749 109.11191876 137.24877018 108 140 C107.66059199 141.78323893 107.37183797 143.57660908 107.125 145.375 C106.43991447 149.78941724 105.50749568 154.00911694 104.29638672 158.30737305 C101.18291691 169.67815166 98.71541064 181.20705607 96.1328125 192.70703125 C95.57025038 195.20169643 95.00740928 197.69629872 94.44430542 200.19084167 C93.11783767 206.06982018 91.79386077 211.94935379 90.47122753 217.82919568 C88.25994354 227.65901088 86.04342431 237.48764616 83.82711792 247.31632996 C82.73059654 252.17909779 81.63537539 257.04215528 80.54129028 261.9054718 C77.73568409 274.36693607 74.90388029 286.82147452 71.99691963 299.25975513 C71.76436407 300.2600862 71.53180851 301.26041727 71.29220581 302.2910614 C71.06860162 303.24652453 70.84499743 304.20198767 70.61461735 305.18640423 C69.83581801 308.75159243 69.23932487 312.34054948 68.69366169 315.94844818 C67.56767427 319.27863286 65.2379087 320.46597608 62.21865845 322.01699829 C61.48650116 322.34138885 60.75434387 322.66577942 60 323 C59.33882172 323.31158051 58.67764343 323.62316101 57.99642944 323.94418335 C55.93722049 324.87567677 53.85879433 325.73162236 51.76171875 326.57421875 C50.98066269 326.89521545 50.19960663 327.21621216 49.3948822 327.54693604 C47.71005953 328.23841769 46.02388205 328.92660589 44.33648682 329.61178589 C40.68276907 331.09550627 37.0357816 332.59546962 33.38812256 334.0940094 C31.47364093 334.88022147 29.55880035 335.66555996 27.64361572 336.45005798 C17.61497008 340.55913565 7.61889605 344.74478168 -2.375 348.9375 C-4.17158913 349.69044787 -5.96822019 350.44329572 -7.76489258 351.19604492 C-11.37432358 352.70833132 -14.98360832 354.22096589 -18.59277344 355.73388672 C-26.66546537 359.11751131 -34.74006173 362.49658637 -42.81451416 365.87600708 C-47.29308736 367.75048524 -51.77153745 369.6252575 -56.25 371.5 C-58.04166608 372.25000141 -59.83333274 373.00000141 -61.625 373.75 C-62.511875 374.12125 -63.39875 374.4925 -64.3125 374.875 C-158.37500017 414.25000007 -158.37500017 414.25000007 -161.06257629 415.37503052 C-162.85399 416.12492557 -164.64540235 416.87482385 -166.43681335 417.62472534 C-170.91983933 419.50135744 -175.40288881 421.37793334 -179.88598633 423.25439453 C-187.90245176 426.60985799 -195.91876428 429.96568376 -203.93417358 433.32366943 C-224.62874388 441.99343347 -245.33174896 450.64256726 -266.04486084 459.26794434 C-280.30630499 465.20703983 -294.56282255 471.15772622 -308.8125 477.125 C-309.69217438 477.49336975 -310.57184875 477.8617395 -311.47817993 478.24127197 C-317.65236584 480.82692779 -323.82622326 483.4133674 -330 486 C-337.06226904 488.95888498 -344.12473469 491.91729979 -351.1875 494.875 C-352.50740433 495.42781143 -352.50740433 495.42781143 -353.85397339 495.99179077 C-364.16246007 500.30877901 -374.47458333 504.61687719 -384.79296875 508.91015625 C-385.78447433 509.32272171 -386.77597992 509.73528717 -387.79753113 510.16035461 C-389.29102837 510.78178596 -389.29102837 510.78178596 -390.81469727 511.41577148 C-408.64612431 518.83533438 -426.46224987 526.28876865 -444.25 533.8125 C-458.11265094 539.67563762 -471.98267649 545.51997303 -485.875 551.3125 C-486.95738953 551.76443222 -486.95738953 551.76443222 -488.06164551 552.22549438 C-490.12130722 553.08517539 -492.18159883 553.94332472 -494.2421875 554.80078125 C-494.88522827 555.06893143 -495.52826904 555.3370816 -496.1907959 555.61335754 C-499.54581648 557.00602716 -502.91130679 558.36292919 -506.29785156 559.67724609 C-506.99363312 559.94885056 -507.68941467 560.22045502 -508.40628052 560.50028992 C-509.73517186 561.01689978 -511.06636921 561.52762842 -512.40011597 562.03157043 C-515.86661709 563.21339816 -515.86661709 563.21339816 -518 566 C-518.66 566 -519.32 566 -520 566 C-520 564.02 -520 562.04 -520 560 C-519.34 560 -518.68 560 -518 560 C-517.96261719 559.32195313 -517.92523437 558.64390625 -517.88671875 557.9453125 C-517.48751644 552.29386016 -516.64979582 547.26101232 -514.89453125 541.8828125 C-513.74665777 538.18355211 -512.80707824 534.44604481 -511.875 530.6875 C-511.70444092 530.00534424 -511.53388184 529.32318848 -511.3581543 528.62036133 C-510.48549839 525.09458846 -509.67647433 521.56874723 -509 518 C-508.34 518 -507.68 518 -507 518 C-506.97421875 517.46375 -506.9484375 516.9275 -506.921875 516.375 C-506.16733893 505.94868334 -503.29847741 495.88163106 -500 486 C-499.64140128 484.50583867 -499.30554613 483.00590593 -499 481.5 C-498.50114708 479.04136774 -497.91482117 476.75364226 -497.09375 474.37890625 C-495.31459409 468.88258532 -494.13926147 463.24056468 -492.85546875 457.61132812 C-491.83580542 453.22302246 -490.67329628 449.18324069 -489 445 C-488.08727929 441.53926729 -487.29574686 438.0517294 -486.5 434.5625 C-485.21222341 428.93920891 -483.85395794 423.46698619 -482 418 C-481.15894339 414.88713645 -480.39246908 411.75670604 -479.625 408.625 C-479.40803467 407.74956543 -479.19106934 406.87413086 -478.9675293 405.97216797 C-478.11156173 402.51758193 -477.26088084 399.06170924 -476.41162109 395.60546875 C-476.04860196 394.12916969 -475.68470935 392.65308506 -475.31982422 391.17724609 C-474.84249073 389.24631956 -474.36840194 387.31459175 -473.89453125 385.3828125 C-473.05275508 382.19950176 -472.05464081 379.11788652 -471 376 C-470.46495135 374.10812941 -469.94358936 372.21232235 -469.4375 370.3125 C-468.68842049 367.50636275 -467.91873854 364.75621563 -467 362 C-494.92652002 373.5049328 -522.82149078 385.08159695 -550.67333984 396.76611328 C-556.02728378 399.0119178 -561.38258472 401.25447242 -566.73828125 403.49609375 C-567.62766388 403.8683609 -568.51704651 404.24062805 -569.43338013 404.62417603 C-573.88541199 406.48752998 -578.33763235 408.35043254 -582.79003906 410.21289062 C-591.21731892 413.7386141 -599.64278845 417.26850995 -608.06295776 420.81118774 C-612.05780281 422.4917024 -616.05352355 424.17012909 -620.04931641 425.84838867 C-621.96105256 426.6520289 -623.87235509 427.45670151 -625.78320312 428.26245117 C-628.42600528 429.37677049 -631.07025576 430.48758327 -633.71484375 431.59765625 C-634.4981456 431.92903091 -635.28144745 432.26040558 -636.08848572 432.6018219 C-636.81201736 432.90474655 -637.53554901 433.2076712 -638.28100586 433.51977539 C-638.90631699 433.78303116 -639.53162811 434.04628693 -640.17588806 434.31752014 C-642.09445934 435.03534136 -644.00528022 435.54014631 -646 436 C-644.73244631 430.07316568 -643.31701644 424.21258695 -641.6875 418.375 C-641.4709375 417.59648682 -641.254375 416.81797363 -641.03125 416.01586914 C-639.29538619 409.86446449 -637.31388088 403.82811562 -635.25390625 397.77734375 C-631.72192242 387.13738001 -628.75364168 376.32737811 -625.9921875 365.46484375 C-625.26647935 362.93057946 -624.48554105 360.5760912 -623.5390625 358.12890625 C-621.88387592 353.8273879 -620.67763353 349.45221453 -619.5 345 C-618.14546329 339.87897733 -616.63926479 334.93703798 -614.72753906 329.99658203 C-613.46805153 326.54017631 -612.56509347 322.99135003 -611.625 319.4375 C-609.73509238 312.45877196 -607.59330884 305.63517132 -605.25390625 298.79296875 C-603.64202462 293.91715237 -602.22460139 288.99445803 -600.80908203 284.05883789 C-599.65695886 280.08742834 -598.37955502 276.23077979 -596.875 272.375 C-594.74301046 266.78712419 -593.7331497 261.05620064 -592.7109375 255.1875 C-592 252 -592 252 -590 249 C-589.46758442 247.11842662 -588.99470795 245.21958705 -588.5625 243.3125 C-587.76831966 239.81356832 -586.84652563 236.49039348 -585.5546875 233.1484375 C-583.93145333 228.93806411 -582.72546846 224.66900924 -581.5625 220.3125 C-579.77331334 213.73586507 -577.87491347 207.20880972 -575.83984375 200.703125 C-575.15418571 198.49626284 -574.49892048 196.2873327 -573.875 194.0625 C-573.29935434 192.04774019 -572.67526571 190.04609301 -572 188.0625 C-570.80673437 184.408124 -569.90195309 180.73666278 -569 177 C-568.34 177 -567.68 177 -567 177 C-566.93941406 176.31292969 -566.87882812 175.62585938 -566.81640625 174.91796875 C-566.69072266 173.56638672 -566.69072266 173.56638672 -566.5625 172.1875 C-566.44068359 170.84751953 -566.44068359 170.84751953 -566.31640625 169.48046875 C-566 167 -566 167 -565 164 C-564.34 164 -563.68 164 -563 164 C-562.98582031 163.26394531 -562.97164062 162.52789062 -562.95703125 161.76953125 C-562.57166567 153.88515974 -562.57166567 153.88515974 -560.0625 150 C-557.33391682 148.21806813 -555.78116118 147.55894349 -552.734375 146.75390625 C-546.41880306 144.92309104 -540.44298656 142.39381234 -534.38425541 139.85655403 C-521.40624404 134.42695836 -508.38246093 129.11972436 -495.31409454 123.91157532 C-490.40854402 121.95632908 -485.50477177 119.99663058 -480.60083008 118.03735352 C-479.57279203 117.62670465 -478.54475399 117.21605579 -477.48556328 116.79296303 C-465.81188842 112.12842907 -454.14781729 107.44004837 -442.484375 102.75 C-440.29989227 101.87170642 -438.11540841 100.99341562 -435.93092346 100.11512756 C-431.4828237 98.32664664 -427.03478838 96.53800556 -422.58679199 94.74926758 C-389.98538649 81.63898072 -357.38146815 68.53530428 -324.75 55.5 C-308.15868133 48.87224359 -291.57488802 42.22699253 -275.01535034 35.5201416 C-269.45460043 33.26830883 -263.89244449 31.01995139 -258.33018494 28.77185059 C-253.96107333 27.00596862 -249.59201043 25.23997272 -245.22412109 23.47106934 C-237.61598145 20.39003627 -230.00585889 17.31403703 -222.39111805 14.24934959 C-218.95883488 12.86775495 -215.52769593 11.48346881 -212.09921265 10.09246826 C-208.29216872 8.5479803 -204.48033636 7.01567514 -200.66796875 5.484375 C-199.51522461 5.0146225 -198.36248047 4.54487 -197.17480469 4.06088257 C-196.12349365 3.64085968 -195.07218262 3.22083679 -193.98901367 2.78808594 C-193.06932297 2.4168158 -192.14963226 2.04554565 -191.20207214 1.6630249 C-189 1 -189 1 -187 2 C-190.59810466 13.65173468 -194.36070639 25.23454038 -198.28515625 36.78125 C-200.76059199 44.10914539 -203.01331839 51.45696262 -205.09375 58.90625 C-206.204255 62.69728431 -207.57806999 66.3159086 -209 70 C-209.67784992 72.33010909 -210.34416793 74.66359824 -211 77 C-211.74024675 79.29315568 -212.50486921 81.57688743 -213.27734375 83.859375 C-213.88911016 85.67152632 -214.47833033 87.49126515 -215.0625 89.3125 C-215.88681105 91.675525 -216.85937076 93.78026924 -218 96 C-211.33255591 93.0434169 -204.66596505 90.08491626 -198 87.125 C-196.98538696 86.6744928 -195.97077393 86.2239856 -194.92541504 85.75982666 C-180.84765379 79.50719074 -166.78921047 73.21366192 -152.75 66.875 C-138.51992348 60.45096521 -124.24487059 54.13661309 -109.94024658 47.88049316 C-96.96707078 42.20478686 -84.03267417 36.44810807 -71.125 30.625 C-70.28647491 30.24674072 -69.44794983 29.86848145 -68.58401489 29.47875977 C-65.31480089 28.00386545 -62.04563118 26.52887305 -58.77656555 25.0536499 C-47.54015106 19.98517407 -36.27803641 14.97518441 -25 10 C-23.35257813 9.27200195 -23.35257813 9.27200195 -21.671875 8.52929688 C-18.42906185 7.0983113 -15.18379692 5.67306207 -11.9375 4.25 C-10.96031006 3.81880859 -9.98312012 3.38761719 -8.97631836 2.94335938 C-8.08565674 2.55470703 -7.19499512 2.16605469 -6.27734375 1.765625 C-5.49609131 1.42305664 -4.71483887 1.08048828 -3.90991211 0.72753906 C-2 0 -2 0 0 0 Z M-87.27050781 52.85351562 C-93.71169939 55.77959502 -100.16735008 58.67294564 -106.625 61.5625 C-107.75518555 62.06885986 -108.88537109 62.57521973 -110.04980469 63.09692383 C-121.6729731 68.30425292 -133.29987166 73.50325566 -144.92626953 78.70336914 C-154.45283747 82.96448298 -163.97756852 87.22964863 -173.5 91.5 C-177.00923477 93.07317442 -180.51852267 94.64623026 -184.02783203 96.21923828 C-186.922215 97.51669489 -189.81636873 98.8146618 -192.71044922 100.11279297 C-196.94662035 102.01279646 -201.18336511 103.91151653 -205.42041016 105.80957031 C-207.0688674 106.54825823 -208.71714892 107.28733844 -210.36523438 108.02685547 C-220.2060012 112.44222014 -230.06930567 116.79021658 -240 121 C-239.32654347 113.92870643 -238.39626186 107.05494796 -236.07543945 100.31494141 C-234.93844358 96.81025811 -234.04940123 93.30665539 -233.1953125 89.72265625 C-233.03006073 89.03425156 -232.86480896 88.34584686 -232.69454956 87.63658142 C-232.16887063 85.44580929 -231.64660214 83.25424605 -231.125 81.0625 C-224.25952211 52.25677691 -224.25952211 52.25677691 -221.25 44 C-219.90817895 40.17762328 -219.74258817 37.03278539 -220 33 C-227.96321834 35.18935984 -235.54577241 38.09071946 -243.1953125 41.1875 C-244.50594669 41.71422696 -245.81675342 42.24052476 -247.12771606 42.76643372 C-249.96163506 43.90413955 -252.79450364 45.04440831 -255.62658691 46.18667603 C-260.24230677 48.04809285 -264.86060801 49.9030429 -269.47949219 51.7565918 C-270.27611015 52.07627395 -271.07272812 52.3959561 -271.89348602 52.72532558 C-273.53101913 53.38242827 -275.16856454 54.03950032 -276.80612183 54.69654274 C-279.33435444 55.71112411 -281.8623802 56.7262196 -284.39038086 57.74137878 C-302.74953419 65.11199789 -321.13301629 72.42123523 -339.51810455 79.72686768 C-344.11883058 81.55515759 -348.7193229 83.38403536 -353.31982422 85.21289062 C-355.19456977 85.95816073 -357.06931546 86.70343051 -358.94406128 87.44869995 C-359.87928493 87.82048244 -360.81450859 88.19226494 -361.77807236 88.57531357 C-364.63621571 89.71148975 -367.49439079 90.84758608 -370.35256958 91.9836731 C-383.51464866 97.21562336 -396.67522513 102.45134076 -409.83486366 107.68942642 C-412.9994845 108.94901357 -416.16418545 110.20839927 -419.3289032 111.46774292 C-428.74097552 115.21335546 -438.15252146 118.96026378 -447.56140041 122.71389198 C-452.63037693 124.73604749 -457.69981555 126.7570422 -462.76953125 128.77734375 C-463.7558082 129.17039829 -464.74208515 129.56345284 -465.75824928 129.96841812 C-478.70941347 135.12723109 -491.68097132 140.22999594 -504.67724991 145.27403641 C-509.51734998 147.15457832 -514.3536076 149.04498734 -519.18993568 150.93520546 C-523.6070676 152.65979391 -528.03076671 154.3658299 -532.46062756 156.05743504 C-535.12336336 157.07895872 -537.77929656 158.11728376 -540.43357277 159.16056633 C-542.21477638 159.85452977 -544.00422076 160.52722602 -545.79386902 161.19911194 C-551.8678882 163.51879341 -551.8678882 163.51879341 -556.20019531 168.16113281 C-556.96349221 170.87041739 -557.50272715 173.39128371 -557.8125 176.1875 C-558.62173528 181.70254047 -560.11653692 186.73484378 -561.875 192 C-564.66161784 200.40475797 -566.54107845 208.81047338 -568.140625 217.51171875 C-568.67617974 220.4181737 -569.29168596 223.27729432 -570.0234375 226.140625 C-570.94156737 229.76907425 -571.68272083 233.38527593 -572.375 237.0625 C-573.67309536 243.67158448 -575.30554099 250.12059023 -577.08984375 256.61328125 C-578.01305631 260.04858294 -578.80900673 263.48575807 -579.5078125 266.97265625 C-580 269 -580 269 -580.9375 271.78515625 C-582.09432772 275.28541071 -582.99630895 278.79487863 -583.875 282.375 C-584.22506545 283.79822505 -584.57533156 285.22140076 -584.92578125 286.64453125 C-585.10318848 287.36721191 -585.2805957 288.08989258 -585.46337891 288.83447266 C-585.97948343 290.91720565 -586.50846189 292.9961407 -587.04296875 295.07421875 C-589.05881087 302.9427225 -590.81755191 310.80353186 -592.2890625 318.79296875 C-593 322 -593 322 -593.96484375 324.3515625 C-595.7561988 328.9347275 -596.46885485 333.79413116 -597.41210938 338.61132812 C-598.43540223 343.68702376 -599.73200866 348.5865728 -601.26147461 353.5324707 C-602.44386691 357.48302903 -603.37874386 361.48465036 -604.3125 365.5 C-604.62127075 366.8156897 -604.62127075 366.8156897 -604.9362793 368.15795898 C-605.38345354 370.06704262 -605.82911665 371.97648072 -606.2734375 373.88623047 C-607.06077299 377.26044982 -607.85844129 380.63214874 -608.65625 384.00390625 C-609.2087311 386.35667747 -609.76082024 388.70954076 -610.3125 391.0625 C-610.57909424 392.1865625 -610.84568848 393.310625 -611.12036133 394.46875 C-611.3655249 395.52191406 -611.61068848 396.57507813 -611.86328125 397.66015625 C-612.08282471 398.59480713 -612.30236816 399.52945801 -612.52856445 400.49243164 C-613.12317868 403.22993816 -613.12317868 403.22993816 -613 407 C-608.52320243 405.58667872 -604.25472271 403.86546663 -599.98046875 401.9375 C-599.30218521 401.63449982 -598.62390167 401.33149963 -597.92506409 401.01931763 C-596.4528111 400.36140869 -594.98110449 399.70227603 -593.5098877 399.04205322 C-589.46632678 397.22771116 -585.41859752 395.42271249 -581.37109375 393.6171875 C-580.52233673 393.23835419 -579.67357971 392.85952087 -578.79910278 392.46920776 C-570.31805197 388.68776816 -561.81214143 384.96382669 -553.30456543 381.24255371 C-537.80403976 374.46149037 -522.35047926 367.58385995 -506.93209839 360.61810303 C-494.15652886 354.84743831 -481.34490283 349.16713391 -468.48413086 343.58886719 C-461.44533185 340.530542 -454.46865713 337.38405029 -447.53588867 334.09277344 C-445 333 -445 333 -443 333 C-443.43868408 334.85963379 -443.43868408 334.85963379 -443.88623047 336.75683594 C-444.98228116 341.40777341 -446.0731709 346.05990926 -447.16259766 350.71240234 C-447.63256998 352.71630766 -448.10389489 354.7198963 -448.57666016 356.72314453 C-452.05679277 371.30314111 -452.05679277 371.30314111 -454.64501953 386.05957031 C-455 388 -455 388 -456 389 C-456.47316153 391.70636338 -456.90330137 394.40888198 -457.3125 397.125 C-458.42865185 404.17200839 -459.96318603 410.94200123 -461.89453125 417.81640625 C-463.32043239 423.03953004 -464.42885914 428.33226909 -465.5625 433.625 C-465.77688721 434.62571533 -465.99127441 435.62643066 -466.2121582 436.6574707 C-466.6247963 438.58603939 -467.03716168 440.51466646 -467.44921875 442.44335938 C-468.86827457 449.03039506 -470.4152793 455.58783066 -472 462.13671875 C-473.81765651 469.69046365 -475.48636877 477.17726557 -476.60546875 484.875 C-477 487 -477 487 -478 488 C-478.37086181 489.99338221 -478.69737711 491.99512332 -479 494 C-479.88888889 499.88888889 -479.88888889 499.88888889 -481 501 C-481.5204543 503.664726 -481.99463475 506.32225592 -482.4375 509 C-483.46676641 515.04480769 -484.58898617 521.03032608 -486 527 C-477.03733225 524.61359863 -468.65878794 521.07532714 -460.13012695 517.48251343 C-455.54983044 515.55380809 -450.96210745 513.64290565 -446.375 511.73046875 C-445.42798218 511.33525528 -444.48096436 510.94004181 -443.50524902 510.53285217 C-433.86468157 506.51517984 -424.18625373 502.59345404 -414.5 498.6875 C-410.99070688 497.27127536 -407.48161957 495.85454159 -403.97265625 494.4375 C-403.08594742 494.07944778 -402.19923859 493.72139557 -401.28565979 493.35249329 C-390.49198952 488.99103317 -379.71462349 484.58965155 -368.9375 480.1875 C-367.91353119 479.76928986 -366.88956238 479.35107971 -365.83456421 478.92019653 C-360.62815478 476.7937097 -355.42192686 474.66677902 -350.21582031 472.53955078 C-340.08230414 468.39910433 -329.94745223 464.26192977 -319.8125 460.125 C-318.80890442 459.7153299 -317.80530884 459.30565979 -316.77130127 458.88357544 C-293.79564703 449.50519044 -270.81331941 440.14319861 -247.83056641 430.78222656 C-241.04705656 428.01923355 -234.26373242 425.25578484 -227.48046875 422.4921875 C-226.36772583 422.03884033 -225.25498291 421.58549316 -224.10852051 421.1184082 C-220.73901051 419.74561323 -217.36950446 418.37280856 -214 417 C-201.58239634 411.94080129 -189.16478684 406.88161722 -176.74667358 401.82366943 C-153.99468972 392.55667951 -131.24419047 383.28610321 -108.5 374 C-84.6548191 364.26437933 -60.80257458 354.54613744 -36.94921875 344.83056641 C-26.22191145 340.46121485 -15.4950578 336.09074971 -4.76815796 331.72039795 C5.06749901 327.71317228 5.06749901 327.71317228 8.33224487 326.38494873 C10.39416833 325.54372224 12.45444481 324.69844639 14.51296997 323.84893799 C19.50158211 321.79619628 24.49858604 319.79617239 29.5585947 317.92491245 C31.4450675 317.22467593 33.32600366 316.51122332 35.20588684 315.79350281 C37.58944796 314.8878376 39.98265867 314.00704756 42.3860321 313.15534973 C48.18296273 311.04769784 48.18296273 311.04769784 52.49981689 306.88090515 C54.02122322 303.21473649 54.84216602 299.50954367 54.8125 295.52734375 C54.92412567 291.36841547 55.72453127 287.81262115 56.9375 283.8125 C60.85487802 269.43341833 63.67409087 254.76977851 66.54858398 240.15332031 C68.1574793 232.05106346 70.06149417 224.02864498 72 216 C73.96748946 207.8084333 75.68032864 199.60577238 77.15625 191.3125 C78.01005304 186.76675377 79.07059621 182.27261797 80.12158203 177.76904297 C81.65832877 171.17529751 83.15775525 164.57324851 84.64428711 157.96801758 C85.00938283 156.35125887 85.37693546 154.7350532 85.74682617 153.11938477 C86.28913628 150.74889178 86.8231224 148.37665401 87.35546875 146.00390625 C87.60383736 144.9303463 87.60383736 144.9303463 87.85722351 143.83509827 C88.74865369 139.81678696 89.1691499 136.11383805 89 132 C79.07056722 135.66043591 69.40283823 139.81334221 59.73022461 144.09643555 C56.12296902 145.69368816 52.51273405 147.28415535 48.90264893 148.875 C47.03007189 149.70020206 45.15763609 150.52572467 43.28533936 151.3515625 C34.82957356 155.0799848 26.35959805 158.77530274 17.8855896 162.46203613 C4.23299882 168.40224308 -9.41163307 174.36051295 -23.04638672 180.34155273 C-24.76483046 181.09529793 -26.48341053 181.84873245 -28.20214844 182.60180664 C-40.50253066 187.99212384 -52.76231456 193.46883722 -65 199 C-64.7487738 198.15079987 -64.49754761 197.30159973 -64.2387085 196.42666626 C-61.79316974 188.0346077 -59.66679785 179.62074137 -57.765625 171.0859375 C-57.48273621 169.82786285 -57.19984741 168.56978821 -56.90838623 167.27359009 C-56.31760522 164.64408235 -55.72973615 162.01394629 -55.14404297 159.38330078 C-54.39441315 156.01752355 -53.63713031 152.65352015 -52.87771988 149.28993797 C-52.14873498 146.05619005 -51.42621644 142.8210084 -50.703125 139.5859375 C-50.43131409 138.3818222 -50.15950317 137.17770691 -49.87945557 135.93710327 C-49.50841705 134.26353256 -49.50841705 134.26353256 -49.12988281 132.55615234 C-48.91100403 131.57689789 -48.69212524 130.59764343 -48.46661377 129.5887146 C-47.88173963 126.78231162 -47.88173963 126.78231162 -48 123 C-47.34 123 -46.68 123 -46 123 C-45.81824219 121.87722656 -45.63648438 120.75445312 -45.44921875 119.59765625 C-45.19569007 118.08587413 -44.94176229 116.57415891 -44.6875 115.0625 C-44.51057617 113.95938477 -44.51057617 113.95938477 -44.33007812 112.83398438 C-43.68344079 109.0370626 -42.88002107 105.47038483 -41.5859375 101.83984375 C-39.38805462 95.54817342 -38.23507953 89.02440243 -36.9375 82.5 C-36.42633486 79.96863814 -35.91462871 77.43738547 -35.40234375 74.90625 C-35.04052002 73.11767578 -35.04052002 73.11767578 -34.67138672 71.29296875 C-32.41389343 60.22057983 -32.41389343 60.22057983 -31.00390625 56.0625 C-29.59978494 51.77911046 -28.79245538 47.42106206 -27.9375 43 C-27.76412109 42.1234375 -27.59074219 41.246875 -27.41210938 40.34375 C-26.53987533 35.90571621 -25.71266701 31.46702623 -25 27 C-43.60375261 27 -70.46521258 45.21523762 -87.27050781 52.85351562 Z " fill="#789BFC" transform="translate(723,158)"/>
<path d="M0 0 C2.01643529 1.24116997 3.89240695 2.50573515 5.73828125 3.98828125 C6.54007309 4.56909958 6.54007309 4.56909958 7.35806274 5.16165161 C9.48007705 7.96999986 8.86367475 10.15226665 8.54833984 13.60107422 C8.49113958 14.26221159 8.43393932 14.92334896 8.37500572 15.6045208 C8.1831333 17.73497751 7.96452245 19.86121561 7.73828125 21.98828125 C7.66762703 22.66932167 7.59697281 23.35036209 7.52417755 24.0520401 C6.99228584 29.10210565 6.39071347 34.14287348 5.77734375 39.18359375 C5.58403227 40.79009278 5.39086935 42.3966097 5.19784546 44.00314331 C4.79549761 47.34309809 4.38999422 50.68265158 3.98242188 54.02197266 C3.46505496 58.2646055 2.95782666 62.50838253 2.45322609 66.75255013 C2.05828795 70.06146676 1.65683203 73.36956969 1.25361252 76.67748642 C1.06404077 78.24064255 0.87665488 79.80406563 0.69166946 81.36777115 C-2.28661545 106.46905996 -2.28661545 106.46905996 -7.88671875 117.05078125 C-8.22574219 117.71271484 -8.56476563 118.37464844 -8.9140625 119.05664062 C-12.35513105 125.55713194 -16.61047577 131.30342872 -21.26171875 136.98828125 C-19.74490381 140.80174253 -17.51718849 142.66080222 -14.32421875 145.17578125 C-12.85855469 146.34560547 -12.85855469 146.34560547 -11.36328125 147.5390625 C-10.33976563 148.34730469 -9.31625 149.15554688 -8.26171875 149.98828125 C-6.23656519 151.60789399 -4.21553116 153.23267504 -2.19921875 154.86328125 C-1.30074219 155.58257813 -0.40226563 156.301875 0.5234375 157.04296875 C2.73828125 158.98828125 2.73828125 158.98828125 4.73828125 161.98828125 C-9.46594764 168.89272036 -23.76974797 175.55048111 -38.16210938 182.05102539 C-39.57685774 182.69018984 -40.9915709 183.32943224 -42.40625 183.96875 C-43.11645294 184.28967117 -43.82665588 184.61059235 -44.55838013 184.9412384 C-50.0822908 187.44241587 -55.58600986 189.98565278 -61.0859375 192.5390625 C-63.50413966 193.65814804 -65.92262012 194.77662988 -68.34118652 195.89492798 C-69.90847132 196.62163389 -71.47448339 197.35109127 -73.03918457 198.08334351 C-75.21304435 199.10035648 -77.39111246 200.10777414 -79.5703125 201.11328125 C-80.54601448 201.57454155 -80.54601448 201.57454155 -81.54142761 202.04512024 C-83.08851798 202.75345363 -84.67278647 203.37957852 -86.26171875 203.98828125 C-86.92171875 203.65828125 -87.58171875 203.32828125 -88.26171875 202.98828125 C-87.57722656 201.97507812 -87.57722656 201.97507812 -86.87890625 200.94140625 C-86.30398438 200.049375 -85.7290625 199.15734375 -85.13671875 198.23828125 C-84.55664062 197.3565625 -83.9765625 196.47484375 -83.37890625 195.56640625 C-81.99507455 193.11187823 -81.99507455 193.11187823 -82.83203125 190.921875 C-84.49022751 188.67923251 -86.26888291 186.75332077 -88.26171875 184.80078125 C-88.96296875 184.10597656 -89.66421875 183.41117188 -90.38671875 182.6953125 C-92.15930207 180.926388 -92.15930207 180.926388 -94.26171875 179.98828125 C-94.26171875 179.32828125 -94.26171875 178.66828125 -94.26171875 177.98828125 C-95.2882959 178.46136719 -96.31487305 178.93445313 -97.37255859 179.421875 C-101.27483348 181.21979863 -105.17784594 183.01611648 -109.08105469 184.81201172 C-110.7527978 185.58144793 -112.42435495 186.35128832 -114.09570312 187.12158203 C-115.71934184 187.86982518 -117.34337714 188.61720836 -118.96780396 189.36373901 C-120.5998651 190.11519559 -122.23029718 190.87020015 -123.85910034 191.62869263 C-128.01091002 193.55083533 -132.17241376 195.37441353 -136.43017578 197.05029297 C-137.6713768 197.55411499 -137.6713768 197.55411499 -138.93765259 198.06811523 C-140.5059002 198.70042621 -142.08421444 199.30852203 -143.67294312 199.88745117 C-147.70290144 201.51693535 -147.70290144 201.51693535 -150.21798706 204.90042114 C-151.53772483 209.64489498 -151.51290743 214.09512569 -151.26171875 218.98828125 C-151.30039062 220.08527344 -151.3390625 221.18226563 -151.37890625 222.3125 C-151.220827 225.92197614 -149.57385346 227.3148755 -147.26171875 229.98828125 C-147.26171875 230.97828125 -147.26171875 231.96828125 -147.26171875 232.98828125 C-168.61323748 242.90607064 -189.97050066 252.80941789 -211.3996582 262.55859375 C-212.06326859 262.86092926 -212.72687897 263.16326477 -213.41059875 263.47476196 C-214.71153983 264.06741658 -216.01287094 264.65921591 -217.31462097 265.25009155 C-220.88557054 266.87757183 -224.43280104 268.54591993 -227.96484375 270.25634766 C-228.74456543 270.63161087 -229.52428711 271.00687408 -230.32763672 271.39350891 C-231.84037586 272.12351791 -233.34996642 272.86009623 -234.85595703 273.60392761 C-236.63039383 274.45831292 -238.44356107 275.23137776 -240.26171875 275.98828125 C-240.92171875 275.65828125 -241.58171875 275.32828125 -242.26171875 274.98828125 C-241.53855469 273.95767578 -241.53855469 273.95767578 -240.80078125 272.90625 C-239.85332031 271.55466797 -239.85332031 271.55466797 -238.88671875 270.17578125 C-238.26023437 269.28246094 -237.63375 268.38914062 -236.98828125 267.46875 C-234.52549256 263.93058072 -233.00045105 261.55566074 -232.3671875 257.30078125 C-232.21894531 256.3144873 -232.07070313 255.32819336 -231.91796875 254.31201172 C-231.76328125 253.21518066 -231.60859375 252.11834961 -231.44921875 250.98828125 C-231.28035156 249.82055176 -231.11148437 248.65282227 -230.9375 247.44970703 C-228.71026096 231.63106457 -226.97135911 215.74935054 -225.16523743 199.87840271 C-224.23098084 191.6816944 -223.25672306 183.49031519 -222.26171875 175.30078125 C-222.10606445 174.01196045 -221.95041016 172.72313965 -221.79003906 171.39526367 C-220.97159952 164.6605687 -220.12918192 157.92968305 -219.25549316 151.20191956 C-218.78558728 147.58071647 -218.3208407 143.9588564 -217.85595703 140.33700562 C-217.52161586 137.75229349 -217.17892049 135.16878218 -216.8359375 132.58520508 C-215.39953107 121.54637211 -214.33896272 110.79412843 -216.26171875 99.73828125 C-216.59505208 97.82161458 -216.92838542 95.90494792 -217.26171875 93.98828125 C-205.64665119 88.08590397 -193.90653341 82.50278335 -182.07421875 77.05078125 C-180.26961323 76.21705309 -178.46509011 75.38314653 -176.66064453 74.54907227 C-163.47445056 68.45712422 -150.27645962 62.39071073 -137.07495117 56.33203125 C-126.00591332 51.2518779 -114.94425254 46.15592377 -103.88671875 41.05078125 C-102.25960346 40.29972202 -100.63248757 39.54866408 -99.00537109 38.79760742 C-91.58071633 35.37004862 -84.15702904 31.9404148 -76.73538208 28.50634766 C-60.35171612 20.92589004 -43.96063257 13.36383201 -27.51171875 5.92578125 C-26.51712646 5.47531433 -26.51712646 5.47531433 -25.50244141 5.01574707 C-23.65736264 4.18063182 -21.81113367 3.34805919 -19.96484375 2.515625 C-18.41265137 1.81554321 -18.41265137 1.81554321 -16.82910156 1.10131836 C-11.31094085 -1.29096908 -5.6938787 -2.54700274 0 0 Z " fill="#CE4A9E" transform="translate(517.26171875,383.01171875)"/>
<path d="M0 0 C0.66 0.33 1.32 0.66 2 1 C1.52949219 1.6290625 1.05898438 2.258125 0.57421875 2.90625 C-0.04839844 3.7621875 -0.67101562 4.618125 -1.3125 5.5 C-1.92738281 6.3353125 -2.54226563 7.170625 -3.17578125 8.03125 C-7.36687815 14.85187879 -8.6065767 21.62649546 -9.5 29.5 C-9.62109131 30.49322266 -9.74218262 31.48644531 -9.86694336 32.50976562 C-10.12210867 34.60629451 -10.37325676 36.7033158 -10.62060547 38.80078125 C-11.24158344 44.03713605 -11.90488532 49.26814378 -12.5625 54.5 C-12.81392525 56.51300545 -13.06523109 58.52602583 -13.31640625 60.5390625 C-13.54418105 62.35938624 -13.7720378 64.17969972 -14 66 C-14.13704346 67.09779785 -14.13704346 67.09779785 -14.27685547 68.21777344 C-15.19066585 75.48906771 -16.26722145 82.71476031 -17.5 89.9375 C-18.78532535 97.48083271 -19.81903795 105.03124097 -20.71875 112.63134766 C-21.30000479 117.52660287 -21.89900334 122.41963594 -22.5 127.3125 C-22.61859375 128.30266113 -22.7371875 129.29282227 -22.859375 130.31298828 C-23.5723062 136.1162095 -24.46543376 141.84807807 -25.57250977 147.58959961 C-26.76804683 153.91717508 -26.76804683 153.91717508 -24.86352539 159.89746094 C-24.40453857 160.50364258 -23.94555176 161.10982422 -23.47265625 161.734375 C-23.0125415 162.35022461 -22.55242676 162.96607422 -22.07836914 163.60058594 C-21.72250732 164.06239258 -21.36664551 164.52419922 -21 165 C-21.66902344 165.2995459 -22.33804687 165.5990918 -23.02734375 165.90771484 C-37.79846572 172.52250084 -52.56433399 179.14890193 -67.32366943 185.78994751 C-69.8757396 186.93783266 -72.4283095 188.08460061 -74.98095703 189.23120117 C-83.12544016 192.89159641 -91.26052076 196.57039838 -99.375 200.296875 C-101.52715289 201.2818041 -103.67957232 202.26614808 -105.83209229 203.25027466 C-107.83588427 204.16955487 -109.83564273 205.09723602 -111.83544922 206.02514648 C-113.02154785 206.56727783 -114.20764648 207.10940918 -115.4296875 207.66796875 C-116.46335449 208.14516357 -117.49702148 208.6223584 -118.56201172 209.11401367 C-119.36654785 209.40638916 -120.17108398 209.69876465 -121 210 C-121.66 209.67 -122.32 209.34 -123 209 C-122.40251953 208.05640625 -122.40251953 208.05640625 -121.79296875 207.09375 C-116.83336373 199.08115211 -113.83951243 192.4025392 -113 183 C-113.80945068 182.75032471 -114.61890137 182.50064941 -115.45288086 182.2434082 C-119.67543635 180.76323234 -123.68768531 178.96573305 -127.75390625 177.10546875 C-128.59921906 176.72171082 -129.44453186 176.33795288 -130.31546021 175.94256592 C-132.12604587 175.12022063 -133.93602626 174.29654161 -135.74545288 173.47164917 C-139.546837 171.73879059 -143.35128437 170.01270699 -147.15553284 168.28614807 C-149.06734034 167.41835788 -150.97899203 166.55022436 -152.89048767 165.68174744 C-172.85065612 156.61304018 -192.86643463 147.67800429 -213 139 C-215.09624002 145.32486212 -215.78509499 151.64302071 -216.5 158.25 C-217.2830848 165.38381647 -218.20929022 172.4159223 -219.54931641 179.46728516 C-220.20463674 183.15000083 -220.57940376 186.84122583 -220.9375 190.5625 C-221.65963695 197.55154261 -222.68399285 204.44202847 -223.88989258 211.36254883 C-224.98953983 217.73714302 -225.81688895 224.12294791 -226.5703125 230.546875 C-226.84571967 232.76014719 -227.16365419 234.96878502 -227.53515625 237.16796875 C-228.81701531 244.92509512 -228.81701531 244.92509512 -226 251.9375 C-225.34 252.618125 -224.68 253.29875 -224 254 C-224 254.66 -224 255.32 -224 256 C-236.45894359 262.0044971 -249.02556597 267.74340262 -261.65618896 273.3770752 C-262.29042786 273.65998413 -262.92466675 273.94289307 -263.578125 274.234375 C-264.22767151 274.52405151 -264.87721802 274.81372803 -265.54644775 275.11218262 C-271.22118824 277.64584223 -276.88463843 280.20416485 -282.546875 282.765625 C-285.27636656 283.99906622 -288.00593513 285.23233691 -290.73550415 286.46560669 C-292.52694064 287.27572794 -294.31794136 288.08681355 -296.10848999 288.89889526 C-298.632329 290.04333471 -301.15779239 291.18411817 -303.68359375 292.32421875 C-304.81151337 292.83743683 -304.81151337 292.83743683 -305.96221924 293.36102295 C-309.91940401 295.14295531 -313.84731319 296.71033302 -318 298 C-317.51789063 297.31035156 -317.03578125 296.62070312 -316.5390625 295.91015625 C-315.90742188 294.97042969 -315.27578125 294.03070312 -314.625 293.0625 C-313.99851562 292.14597656 -313.37203125 291.22945312 -312.7265625 290.28515625 C-308.90660401 283.01686419 -308.39423184 274.38430058 -307.30078125 266.33984375 C-307.067043 264.65580444 -307.067043 264.65580444 -306.82858276 262.93774414 C-306.49407369 260.52575656 -306.16115422 258.11354808 -305.8296814 255.70114136 C-304.94859837 249.28930883 -304.05620941 242.87905098 -303.1640625 236.46875 C-302.98346786 235.16945053 -302.80287323 233.87015106 -302.61680603 232.53147888 C-300.60625193 218.10498979 -298.49033248 203.69415085 -296.34692383 189.28686523 C-294.49212832 176.75638927 -292.79631832 164.20917305 -291.32192993 151.62771606 C-291.1083064 149.88403852 -290.87034456 148.1431611 -290.60751343 146.40621948 C-290.30498308 144.28267425 -290.14099358 142.14034805 -290 140 C-292.29199403 137.03949126 -292.29199403 137.03949126 -295 135 C-295 134.34 -295 133.68 -295 133 C-256.50172922 115.56269449 -256.50172922 115.56269449 -244.52734375 110.1953125 C-243.90069321 109.91438248 -243.27404266 109.63345245 -242.62840271 109.3440094 C-239.68003359 108.02316719 -236.72998852 106.70621721 -233.77807617 105.39331055 C-228.34880583 102.97439113 -222.94766754 100.51477775 -217.5859375 97.94921875 C-216.5762793 97.47170166 -215.56662109 96.99418457 -214.52636719 96.50219727 C-212.66313634 95.61777407 -210.80632118 94.71963257 -208.95800781 93.80444336 C-208.13913086 93.41780518 -207.32025391 93.03116699 -206.4765625 92.6328125 C-205.77611816 92.29137207 -205.07567383 91.94993164 -204.35400391 91.59814453 C-198.19847171 90.03404436 -192.68316163 92.75984048 -187.2421875 95.359375 C-186.50949646 95.70006516 -185.77680542 96.04075531 -185.02191162 96.39176941 C-183.45163326 97.1231168 -181.88327863 97.85860651 -180.31671143 98.59786987 C-177.00283629 100.16153351 -173.67961101 101.704836 -170.35690308 103.24961853 C-168.66852226 104.03490317 -166.98063652 104.82125309 -165.29324341 105.60865784 C-157.76707519 109.11941021 -150.20598748 112.54702388 -142.625 115.9375 C-141.57940918 116.40704102 -140.53381836 116.87658203 -139.45654297 117.36035156 C-128.34442942 122.33142502 -117.16840952 127.15713059 -106 132 C-105.9189653 131.39739349 -105.8379306 130.79478699 -105.75444031 130.17391968 C-104.89456037 123.77981352 -104.0343922 117.38574619 -103.17407227 110.99169922 C-102.8549911 108.61996394 -102.53597829 106.24821947 -102.21704102 103.87646484 C-101.90721247 101.57251148 -101.59724564 99.26857671 -101.28713989 96.96466064 C-100.97838248 94.66944651 -100.67017578 92.37415822 -100.36251831 90.07879639 C-99.62566802 84.59195552 -98.87772481 79.10719828 -98.10009766 73.62597656 C-97.95981644 72.62821198 -97.81953522 71.63044739 -97.67500305 70.60244751 C-97.41372934 68.74931459 -97.14870759 66.89670432 -96.8790741 65.04476929 C-96.21873196 60.34024253 -95.63544557 55.75922976 -96 51 C-98.35418376 48.06026719 -98.35418376 48.06026719 -101 46 C-93.56384921 42.18821786 -86.01039049 38.70463285 -78.375 35.3125 C-76.48009337 34.46731324 -74.58559666 33.62121202 -72.69111633 32.77507019 C-71.33126729 32.16774707 -69.97130991 31.56066648 -68.61125183 30.95381165 C-60.45745276 27.31466957 -52.31462834 23.6511602 -44.17224121 19.98657227 C-41.57654186 18.81881716 -38.98022059 17.65245423 -36.38378906 16.48632812 C-29.11715033 13.22058379 -21.85572461 9.94684758 -14.62890625 6.59375 C-13.58984131 6.11317139 -12.55077637 5.63259277 -11.48022461 5.13745117 C-9.63796485 4.28256073 -7.79868413 3.42120688 -5.96313477 2.55200195 C-4.00163272 1.6425285 -2.00428621 0.81084464 0 0 Z " fill="#090266" transform="translate(470,230)"/>
<path d="M0 0 C-0.4179214 3.34337118 -1.20938936 5.35943761 -2.9296875 8.3125 C-5.90874025 14.20653985 -6.2192403 20.51936825 -6.875 27 C-7.11053158 29.16441259 -7.35149535 31.32817796 -7.59289551 33.49194336 C-7.7680044 35.06288246 -7.94137522 36.6340161 -8.11315918 38.20532227 C-8.85228469 44.89853264 -9.70731337 51.57381954 -10.5859375 58.25 C-10.86358027 60.38019058 -11.14108639 62.51039897 -11.41845703 64.640625 C-11.82867035 67.78913996 -12.24155316 70.93715181 -12.66448975 74.08398438 C-14.32351715 86.46685896 -15.41522159 98.50141083 -15 111 C-39.82217512 123.69712913 -65.28934783 135.15926836 -90.70829773 146.60247803 C-93.56652834 147.8901699 -96.4135463 149.1955811 -99.24755859 150.53588867 C-100.22160645 150.99455322 -101.1956543 151.45321777 -102.19921875 151.92578125 C-103.45545044 152.52773315 -103.45545044 152.52773315 -104.73706055 153.1418457 C-108.35686292 154.51455099 -110.3626269 154.28823631 -114 153 C-117.52878694 149.23130725 -117.39642697 146.42672853 -117.25732422 141.46923828 C-116.70944369 134.08272749 -115.61762799 126.76554104 -114.5625 119.4375 C-114.10247815 116.18661491 -113.64672642 112.93514016 -113.19140625 109.68359375 C-113.08207764 108.91107773 -112.97274902 108.13856171 -112.86010742 107.34263611 C-112.29636741 103.31635449 -111.80378804 99.30053004 -111.44140625 95.25 C-110.47707159 84.83720169 -106.75384553 75.01565559 -100 67 C-91.36989361 59.89129155 -81.70124892 55.15318024 -71.5625 50.625 C-70.22667273 50.01811607 -68.89138367 49.41004606 -67.55664062 48.80078125 C-65.11719627 47.68732967 -62.67470745 46.58214661 -60.22875977 45.48291016 C-58.04298947 44.47902594 -55.88401253 43.41502349 -53.75366211 42.29833984 C-51 41 -51 41 -48.25 41.1875 C-46 42 -46 42 -44 44 C-43.89510254 42.94087402 -43.89510254 42.94087402 -43.78808594 41.86035156 C-43.46025096 38.65473687 -43.1054446 35.45266581 -42.75 32.25 C-42.64042969 31.13882812 -42.53085937 30.02765625 -42.41796875 28.8828125 C-42.29550781 27.81289063 -42.17304687 26.74296875 -42.046875 25.640625 C-41.94213867 24.65610352 -41.83740234 23.67158203 -41.72949219 22.65722656 C-40.79848182 19.26595586 -39.77808036 18.15868496 -37 16 C-34.41016387 14.54127429 -31.73696432 13.31920981 -29.0234375 12.109375 C-28.25697906 11.75989807 -27.49052063 11.41042114 -26.70083618 11.050354 C-25.08731119 10.31675981 -23.47181437 9.587489 -21.85449219 8.86230469 C-19.37235249 7.74881232 -16.89676547 6.62168747 -14.421875 5.4921875 C-12.85192649 4.78044656 -11.28162589 4.06948165 -9.7109375 3.359375 C-8.96822601 3.02194275 -8.22551453 2.6845105 -7.46029663 2.33685303 C-2.23303675 0 -2.23303675 0 0 0 Z " fill="#CE4B9E" transform="translate(778,326)"/>
<path d="M0 0 C4.76154499 6.5157984 1.99782523 17.70859567 1.05078125 25.171875 C0.92946335 26.14554016 0.80814545 27.11920532 0.68315125 28.12237549 C0.4251039 30.16991108 0.16356476 32.21700938 -0.10131836 34.26367188 C-0.49693818 37.35110541 -0.86893866 40.44080984 -1.24023438 43.53125 C-4.97802998 73.37006627 -4.97802998 73.37006627 -15.8125 83.625 C-24.27665053 89.99805175 -33.95596375 94.13386528 -43.5625 98.4375 C-46.84497395 99.91917343 -50.12554762 101.40503402 -53.40625 102.890625 C-54.24996155 103.27158829 -55.0936731 103.65255157 -55.96295166 104.0450592 C-62.20695176 106.87226628 -68.4055788 109.78728109 -74.59375 112.734375 C-77.22932993 113.98137684 -79.8655831 115.2269434 -82.5020752 116.47201538 C-84.19651796 117.27640109 -85.88823054 118.08656568 -87.57702637 118.90274048 C-89.94521371 120.04609171 -92.3227107 121.16753436 -94.703125 122.28515625 C-95.39233032 122.62492493 -96.08153564 122.9646936 -96.79162598 123.3147583 C-101.74574171 125.60552815 -106.36027844 126.44041655 -111.8125 125.625 C-115.10726967 123.31866123 -116.07222885 121.47164259 -116.8125 117.625 C-117.20449738 112.08233938 -116.92922344 106.7142902 -115.91796875 101.25390625 C-115.08417558 96.46264599 -114.42706174 91.67140311 -113.8828125 86.83984375 C-113.8051918 86.16571442 -113.72757111 85.49158508 -113.64759827 84.79702759 C-113.32837554 82.02132225 -113.01058799 79.24568959 -112.71337891 76.4675293 C-111.21925612 62.61691383 -108.50496374 49.41972568 -97.68969727 39.72143555 C-89.07307823 33.23111862 -79.60804443 29.02822143 -69.8125 24.625 C-68.00439308 23.80201911 -66.19678232 22.97794737 -64.38964844 22.15283203 C-60.69408696 20.46732899 -56.99560463 18.78848456 -53.29492188 17.11425781 C-48.0225186 14.7256153 -42.76735227 12.30088035 -37.515625 9.8671875 C-35.12622962 8.76279748 -32.7365348 7.65905887 -30.34667969 6.55566406 C-28.83305521 5.85612235 -27.32002588 5.15529136 -25.80761719 4.453125 C-23.71264453 3.48176006 -21.61460789 2.51734971 -19.515625 1.5546875 C-18.33645508 1.01054199 -17.15728516 0.46639648 -15.94238281 -0.09423828 C-10.63823053 -2.26472056 -4.96222212 -3.76444437 0 0 Z " fill="#CE4B9E" transform="translate(654.8125,409.375)"/>
<path d="M0 0 C3.16802008 2.87951387 3.94444451 4.5395486 4.4609375 8.8203125 C4.4559398 10.25548554 4.42621816 11.69073247 4.375 13.125 C4.36065918 13.88562744 4.34631836 14.64625488 4.33154297 15.42993164 C4.18929556 20.39436631 3.63122827 25.11100411 2.57421875 29.96875 C1.64435484 34.87741937 1.20013508 39.84030119 0.69775391 44.80834961 C0.09301351 50.65100392 0.09301351 50.65100392 -0.52294922 52.9621582 C-1.05244591 55.22403583 -1.11334143 57.22546869 -1.09765625 59.546875 C-1.09443359 60.39121094 -1.09121094 61.23554688 -1.08789062 62.10546875 C-1.07951172 62.97816406 -1.07113281 63.85085938 -1.0625 64.75 C-1.05798828 65.63816406 -1.05347656 66.52632813 -1.04882812 67.44140625 C-1.03707398 69.62767683 -1.01977489 71.8137917 -1 74 C-5.80342573 76.14092944 -10.60894956 78.27704907 -15.41650391 80.40869141 C-17.05251052 81.13490288 -18.68793043 81.86243757 -20.32275391 82.59130859 C-22.66937624 83.63725609 -25.01805043 84.67846507 -27.3671875 85.71875 C-28.46726639 86.21091003 -28.46726639 86.21091003 -29.58956909 86.7130127 C-34.77225659 89 -34.77225659 89 -37 89 C-37.33 87.35 -37.66 85.7 -38 84 C-38.495 85.051875 -38.99 86.10375 -39.5 87.1875 C-43.40941391 94.0121782 -51.52707015 96.90484852 -58.4453125 99.98828125 C-59.60557449 100.51037422 -59.60557449 100.51037422 -60.78927612 101.04301453 C-62.40972106 101.76949952 -64.03157799 102.49284266 -65.65478516 103.21313477 C-68.13110738 104.31521808 -70.59869921 105.43542307 -73.06640625 106.55664062 C-74.65054319 107.26413801 -76.23516257 107.97055639 -77.8203125 108.67578125 C-78.55170441 109.01007645 -79.28309631 109.34437164 -80.03665161 109.688797 C-84.20031355 111.51256896 -87.35877765 112.38745146 -92 112 C-94.55009031 106.06782704 -95.52043008 101.25011203 -95.4375 94.8125 C-95.42992676 93.98387451 -95.42235352 93.15524902 -95.41455078 92.30151367 C-95.09370375 80.21354335 -91.76943147 70.43354365 -82.953125 62.0546875 C-71.48304475 52.23968595 -57.64020509 46.14519101 -43.8059082 40.44970703 C-35.52030208 37.35442944 -35.52030208 37.35442944 -30.07421875 30.859375 C-29.94660156 30.16328125 -29.81898438 29.4671875 -29.6875 28.75 C-29.460625 27.5125 -29.23375 26.275 -29 25 C-37.34320733 27.13170259 -44.87262027 30.54832804 -52.625 34.25 C-55.11044189 35.42774739 -57.59788132 36.60122443 -60.0859375 37.7734375 C-61.27541992 38.33385742 -62.46490234 38.89427734 -63.69042969 39.47167969 C-67.83357316 41.3849342 -72.03190667 43.13593875 -76.25 44.875 C-81.55800431 47.14498255 -85.62863692 49.62863692 -89.71484375 53.71484375 C-90.35099609 54.35099609 -90.35099609 54.35099609 -91 55 C-91.33 55 -91.66 55 -92 55 C-91.88449154 52.97860193 -91.75711059 50.95788094 -91.625 48.9375 C-91.55539062 47.81214844 -91.48578125 46.68679688 -91.4140625 45.52734375 C-90.95539825 41.62004359 -90.53885272 38.64479606 -89 35 C-86.42503772 32.98865285 -83.57100683 31.82887282 -80.56640625 30.58203125 C-79.70942139 30.20234192 -78.85243652 29.82265259 -77.96948242 29.43145752 C-75.17706753 28.20088156 -72.37063581 27.0067078 -69.5625 25.8125 C-67.64015765 24.97364524 -65.71885374 24.13240683 -63.79858398 23.28881836 C-59.97783937 21.61414153 -56.15177359 19.95274072 -52.3203125 18.30273438 C-47.72585447 16.32086752 -43.15336191 14.29498585 -38.59375 12.234375 C-37.97741196 11.956436 -37.36107391 11.67849701 -36.72605896 11.39213562 C-35.00475639 10.61584814 -33.28362438 9.83918248 -31.5625 9.0625 C-6.71536614 -2.14093851 -6.71536614 -2.14093851 0 0 Z " fill="#0A0367" transform="translate(563,272)"/>
<path d="M0 0 C0.495 0.495 0.495 0.495 1 1 C0.81383829 11.22801422 -1.04014521 21.55446737 -2.375 31.6875 C-2.83117544 35.15862757 -3.28581144 38.62994988 -3.73828125 42.1015625 C-3.84927658 42.95273148 -3.96027191 43.80390045 -4.07463074 44.68086243 C-4.72883627 49.74839276 -5.32239919 54.81672846 -5.85546875 59.8984375 C-5.97809082 61.04223877 -6.10071289 62.18604004 -6.22705078 63.36450195 C-6.44363946 65.42934556 -6.64737527 67.49559658 -6.83544922 69.56323242 C-7.66696753 77.36442374 -10.12855636 81.70656985 -16.29502869 86.75462341 C-19.08239681 88.79062424 -22.1392817 90.213405 -25.26953125 91.62890625 C-25.94996994 91.94528549 -26.63040863 92.26166473 -27.33146667 92.58763123 C-29.48797834 93.58780739 -31.65004316 94.57525463 -33.8125 95.5625 C-35.25103008 96.22769654 -36.68918458 96.89370593 -38.12695312 97.56054688 C-40.86902211 98.83026008 -43.61505608 100.09057759 -46.36572266 101.34155273 C-48.55408783 102.34017994 -50.73771213 103.34943282 -52.91162109 104.37915039 C-58.67371339 107.07477402 -58.67371339 107.07477402 -62 106.3125 C-64 105 -64 105 -65 104 C-64.80529987 94.85655061 -63.52083742 85.78392326 -62.1875 76.75 C-60.97340878 68.45453366 -59.88490708 60.18611021 -59.09375 51.83984375 C-58.86463279 49.53939481 -58.63383019 47.23911883 -58.40298462 44.93884277 C-58.26078036 43.45311945 -58.12934139 41.96632128 -58.0093689 40.4786377 C-56.85173556 26.17924653 -56.85173556 26.17924653 -50.95532227 20.58227539 C-50.31006592 20.06012451 -49.66480957 19.53797363 -49 19 C-48.38632568 18.4939624 -47.77265137 17.9879248 -47.14038086 17.46655273 C-45.26506544 16.01696604 -43.34973464 14.68540392 -41.375 13.375 C-40.68277344 12.90843994 -39.99054688 12.44187988 -39.27734375 11.96118164 C-26.95112729 3.84029706 -14.96477091 -1.02957624 0 0 Z " fill="#FEFDFE" transform="translate(438,445)"/>
<path d="M0 0 C-0.99 4.95 -1.98 9.9 -3 15 C-1.57945312 14.3503125 -0.15890625 13.700625 1.3046875 13.03125 C3.16136916 12.18730379 5.01814487 11.34356447 6.875 10.5 C8.28072266 9.85611328 8.28072266 9.85611328 9.71484375 9.19921875 C10.61074219 8.79316406 11.50664063 8.38710937 12.4296875 7.96875 C13.25710449 7.59169922 14.08452148 7.21464844 14.93701172 6.82617188 C17 6 17 6 19 6 C19.5134473 11.74794245 19.99378847 17.84839147 17 23 C13.77046595 25.0622871 10.24901286 26.11670899 6.625 27.3125 C2.60964906 28.73638568 -0.79111926 30.1549106 -4 33 C-7.55531016 40.5877566 -7.54067789 49.36071305 -7.85107422 57.60791016 C-8.05257131 62.19741941 -8.63699424 66.70116756 -9.25 71.25 C-9.51095267 73.49894224 -9.75562554 75.74918257 -10 78 C-4.43637393 77.02121393 0.30303656 75.6125418 5.2734375 72.90234375 C7 72 7 72 10 71 C10.40336175 76.51033168 10.57447058 81.96941127 8 87 C3.42293701 91.33376828 -2.7242022 93.58917076 -8.47900391 95.95361328 C-11.52676043 97.2186418 -14.48279885 98.63746527 -17.45239258 100.07397461 C-20.27877253 101.43530276 -23.13217801 102.728623 -26 104 C-27.25103516 104.58007812 -27.25103516 104.58007812 -28.52734375 105.171875 C-31.51480866 106.17241617 -34.04199466 106.26562984 -37.1875 106.25 C-38.23292969 106.25515625 -39.27835938 106.2603125 -40.35546875 106.265625 C-43 106 -43 106 -45 104 C-46.48870638 97.33936788 -45.88642142 90.85645902 -44.8203125 84.1953125 C-44.68809296 83.30891083 -44.55587341 82.42250916 -44.41964722 81.50924683 C-43.99946593 78.71263392 -43.56231425 75.918979 -43.125 73.125 C-42.83876918 71.22932861 -42.55360376 69.33349602 -42.26953125 67.4375 C-41.74594902 63.97705327 -41.22093725 60.5168896 -40.68017578 57.05908203 C-40.57279083 56.36976593 -40.46540588 55.68044983 -40.35476685 54.97024536 C-39.99131055 52.95174195 -39.51963258 50.98351914 -39 49 C-39.98742187 49.433125 -40.97484375 49.86625 -41.9921875 50.3125 C-43.28637554 50.87519045 -44.58065093 51.43768005 -45.875 52 C-46.52597656 52.28617187 -47.17695312 52.57234375 -47.84765625 52.8671875 C-52.7734375 55 -52.7734375 55 -55 55 C-55.09796939 52.30584185 -55.08490292 49.69008204 -55 47 C-55.02707031 46.24460937 -55.05414062 45.48921875 -55.08203125 44.7109375 C-54.90099428 41.86327482 -54.61175193 40.38908187 -53 38 C-49.82742712 36.54302049 -46.80501373 35.24984355 -43.40991211 34.43725586 C-40.89522252 33.60903532 -39.69617255 33.07128763 -38 31 C-37.833307 29.14914178 -37.67957436 27.29448249 -37.64074707 25.4365387 C-37.44461492 16.45820738 -37.44461492 16.45820738 -34.54370117 13.52999878 C-29.78183478 10.30861042 -24.37035943 8.45217201 -19 6.5 C-17.38566176 5.8561441 -15.77363914 5.20644991 -14.1640625 4.55078125 C-2.82411963 0 -2.82411963 0 0 0 Z " fill="#0A0367" transform="translate(635,220)"/>
<path d="M0 0 C0.31808265 8.89656445 -0.52761126 17.57750155 -1.54418945 26.39892578 C-1.8134402 28.7582385 -2.06432681 31.11906115 -2.31445312 33.48046875 C-2.48586907 35.00272958 -2.65835767 36.52487009 -2.83203125 38.046875 C-2.90404251 38.74182068 -2.97605377 39.43676636 -3.05024719 40.152771 C-3.68685942 45.45167768 -4.70786387 51.1971963 -9.0859375 54.640625 C-10.52839844 55.31351562 -10.52839844 55.31351562 -12 56 C-12.70415039 56.35642578 -13.40830078 56.71285156 -14.13378906 57.08007812 C-16.61614356 58.33586932 -19.11736095 59.54557337 -21.625 60.75 C-22.91277344 61.38615234 -22.91277344 61.38615234 -24.2265625 62.03515625 C-25.0515625 62.43089844 -25.8765625 62.82664062 -26.7265625 63.234375 C-27.47502441 63.59756836 -28.22348633 63.96076172 -28.99462891 64.33496094 C-31 65 -31 65 -34 64 C-33.4334148 54.13606396 -32.6191327 44.33516487 -31.43530273 34.52612305 C-31.26828809 33.11842815 -31.10860779 31.70984609 -30.95581055 30.30053711 C-30.72979652 28.21772359 -30.48256602 26.1383923 -30.23046875 24.05859375 C-30.09020264 22.84486084 -29.94993652 21.63112793 -29.80541992 20.38061523 C-28.59331276 15.2929984 -26.3448073 12.03796394 -22.2265625 8.859375 C-18.67438106 6.81235519 -15.09179401 4.97512551 -11.375 3.25 C-10.72015625 2.93417969 -10.0653125 2.61835938 -9.390625 2.29296875 C-5.94834155 0.68331798 -3.87071079 0 0 0 Z " fill="#FEFCFD" transform="translate(614,439)"/>
<path d="M0 0 C0.99 0.66 1.98 1.32 3 2 C2.32169442 11.51643757 1.27030919 20.97701949 0.06298828 30.4387207 C-0.14710825 32.1160514 -0.34849372 33.79449437 -0.54150391 35.47387695 C-0.82489264 37.93221468 -1.13598532 40.38566014 -1.453125 42.83984375 C-1.53355042 43.5857225 -1.61397583 44.33160126 -1.69683838 45.1000824 C-2.40992453 50.28506411 -3.99077303 52.70096799 -8 56 C-9.52852805 57.13076052 -11.08982726 58.21924339 -12.6875 59.25 C-13.45449219 59.75015625 -14.22148438 60.2503125 -15.01171875 60.765625 C-19.23720871 63.38891543 -22.06275165 63.07963304 -27 63 C-28.18622062 58.61220771 -27.83520863 54.65384081 -27.29296875 50.20703125 C-27.20751297 49.46096115 -27.12205719 48.71489105 -27.03401184 47.94621277 C-26.85180407 46.36987955 -26.66582586 44.79397816 -26.47631836 43.21850586 C-26.19064376 40.83868913 -25.91756554 38.45769018 -25.64648438 36.07617188 C-25.14241492 31.71113757 -24.58484266 27.3548731 -24 23 C-23.8654541 21.95505371 -23.7309082 20.91010742 -23.59228516 19.83349609 C-22.72951268 14.37668777 -21.62727565 11.41773309 -17 8 C-14.19859225 6.33977663 -11.33026162 4.92666087 -8.375 3.5625 C-7.611875 3.18673828 -6.84875 2.81097656 -6.0625 2.42382812 C-5.32773437 2.07900391 -4.59296875 1.73417969 -3.8359375 1.37890625 C-2.83892822 0.90819702 -2.83892822 0.90819702 -1.82177734 0.42797852 C-0.91999756 0.21612915 -0.91999756 0.21612915 0 0 Z " fill="#FEFCFD" transform="translate(727,385)"/>
<path d="M0 0 C-0.08730853 2.73064947 -0.19422124 5.4581619 -0.3125 8.1875 C-0.33505859 8.95642578 -0.35761719 9.72535156 -0.38085938 10.51757812 C-0.65377364 16.2983985 -1.69355989 19.80977586 -6.015625 23.9140625 C-10.50801864 27.35404224 -14.56124711 30.32653757 -20 32 C-22.703125 31.5625 -22.703125 31.5625 -25 31 C-24.12171386 14.33567615 -24.12171386 14.33567615 -22 10 C-19.56200022 7.84330789 -16.90887187 6.43572936 -14 5 C-13.05382812 4.53207031 -12.10765625 4.06414062 -11.1328125 3.58203125 C-3.56740196 0 -3.56740196 0 0 0 Z " fill="#F7F6F9" transform="translate(528,323)"/>
</svg>
